<svg xmlns="http://www.w3.org/2000/svg" width="352.107" height="330.26" viewBox="0 0 352.107 330.26">
  <g id="img-show" transform="translate(-118.72 -209)">
    <g id="barn" transform="translate(132 205)">
      <path id="Path_151" data-name="Path 151" d="M419.988,4h0a27.988,27.988,0,0,1,27.988,27.988V76.769a27.988,27.988,0,0,1-27.988,27.988h0A27.988,27.988,0,0,1,392,76.769V31.988A27.988,27.988,0,0,1,419.988,4Z" transform="translate(-117.716)" fill="#008100"/>
      <path id="Path_152" data-name="Path 152" d="M424,92h11.2V192.757H424Z" transform="translate(-127.326 -26.426)" fill="#763a02"/>
      <path id="Path_153" data-name="Path 153" d="M259.1,269.514H24V168.757L79.976,90.391,141.55,68l61.574,22.391L259.1,168.757Z" transform="translate(-7.207 -19.219)" fill="#de0418"/>
      <g id="Group_37" data-name="Group 37" transform="translate(78.367 87.964)">
        <path id="Path_154" data-name="Path 154" d="M152,124h55.976v39.183H152Z" transform="translate(-124.012 -124)" fill="#a3021a"/>
        <path id="Path_155" data-name="Path 155" d="M112,212h55.976V312.757H112Z" transform="translate(-112 -150.426)" fill="#a3021a"/>
      </g>
      <path id="Path_156" data-name="Path 156" d="M8,150.355,63.976,71.988,136.745,44l72.769,27.988,55.976,78.367L248.7,167.148,192.722,88.781,136.745,66.391,80.769,88.781,24.793,167.148Z" transform="translate(-2.402 -12.012)" fill="#fadbb7"/>
      <path id="Path_157" data-name="Path 157" d="M438.367,312.757H360V212l78.367,22.391Z" transform="translate(-108.107 -62.462)" fill="#a3021a"/>
      <path id="Path_158" data-name="Path 158" d="M392,276h33.586v22.391H392Z" transform="translate(-117.716 -81.681)" fill="#de0418"/>
      <path id="Path_159" data-name="Path 159" d="M192,212h55.976V312.757H192Z" transform="translate(-57.657 -62.462)" fill="#7a0212"/>
      <g id="Group_38" data-name="Group 38" transform="translate(78.367 87.964)">
        <path id="Path_160" data-name="Path 160" d="M146.392,262.379l21.584-38.853V212h-6.4l-21.584,38.853L118.4,212H112v11.526l21.584,38.853L112,301.232v11.526h6.4L139.988,273.9l21.584,38.853h6.4V301.232Z" transform="translate(-112 -150.426)" fill="#fadbb7"/>
        <path id="Path_161" data-name="Path 161" d="M189.75,143.592l18.226-12.757V124h-9.762l-18.226,12.757L161.762,124H152v6.835l18.226,12.757L152,156.349v6.835h9.762l18.226-12.757,18.226,12.757h9.762v-6.835Z" transform="translate(-124.012 -124)" fill="#fadbb7"/>
      </g>
      <g id="Group_39" data-name="Group 39" transform="translate(0 278.284)">
        <path id="Path_162" data-name="Path 162" d="M78.367,418.391V407.2h-11.2V396h-11.2v11.2h-11.2V396h-11.2v11.2h-11.2V396H11.2v11.2H0v11.2H11.2v11.2H0v11.2H11.2v11.2h11.2v-11.2h11.2v11.2h11.2v-11.2h11.2v11.2h11.2v-11.2h11.2v-11.2h-11.2v-11.2Zm-55.976,11.2v-11.2h11.2v11.2Zm33.586,0h-11.2v-11.2h11.2Z" transform="translate(0 -396)" fill="#763a02"/>
        <path id="Path_163" data-name="Path 163" d="M417.538,418.391V407.2h-11.2V396h-11.2v11.2h-11.2V396h-11.2v11.2h-11.2V396h-11.2v11.2h-11.2V396h-11.2v11.2h-11.2V396h-11.2v11.2h-11.2V396H283.2v11.2H272v11.2h11.2v11.2H272v11.2h11.2v11.2h11.2v-11.2h11.2v11.2h11.2v-11.2h11.2v11.2h11.2v-11.2h11.2v11.2h11.2v-11.2h11.2v11.2h11.2v-11.2h11.2v11.2h11.2v-11.2h11.2v-11.2h-11.2v-11.2Zm-123.148,11.2v-11.2h11.2v11.2Zm22.391,0v-11.2h11.2v11.2Zm22.39,0v-11.2h11.2v11.2Zm22.391,0v-11.2h11.2v11.2Zm33.586,0h-11.2v-11.2h11.2Z" transform="translate(-81.681 -396)" fill="#763a02"/>
      </g>
      <path id="Path_164" data-name="Path 164" d="M226.392,262.379l21.584-38.853V212h-6.4l-21.584,38.853L198.4,212H192v11.526l21.584,38.853L192,301.232v11.526h6.4L219.988,273.9l21.584,38.853h6.4V301.232Z" transform="translate(-57.657 -62.462)" fill="#fadbb7"/>
    </g>
    <g id="glass" transform="translate(9 -92)">
      <path id="Path_121" data-name="Path 121" d="M253.676,435.3v-6.015a3.105,3.105,0,1,0-6.21,0V435.3Z" transform="translate(96.012 108.138)" fill="#09a76d"/>
      <path id="Path_122" data-name="Path 122" d="M302.4,435.3v-6.015a3.105,3.105,0,1,0-6.21,0V435.3Z" transform="translate(67.463 108.138)" fill="#09a76d"/>
      <path id="Path_123" data-name="Path 123" d="M303.454,434.89l-99.623-2.427v-5.6a3.105,3.105,0,1,0-6.21,0v5.6H183.66v-5.6a3.105,3.105,0,1,0-6.21,0v5.6L67.544,433.829,33.9,433.89v-4.6a3.105,3.105,0,1,0-6.21,0v4.6l-70.13,1.079a3.1,3.1,0,0,0-3.105,3.105,3.1,3.1,0,0,0,3.105,3.105l201.41-.079H303.454a3.105,3.105,0,0,0,0-6.21Z" transform="translate(155.268 110.138)" fill="#8bc727"/>
    </g>
    <g id="poultry" transform="translate(242 435)">
      <path id="Path_165" data-name="Path 165" d="M60.424,5.95a2,2,0,0,0-2.732-.383S58.1,3.831,57,3.036c-1-.723-3,.643-3,.643s-1.567-1.045-2.612-.723.17,2.994.17,2.994L56,12l2.7.417c2.138-.784.594-3.345.594-3.345s2.157-1.865,1.125-3.122Z" fill="#c12929"/>
      <path id="Path_166" data-name="Path 166" d="M21.522,45v5.382a1,1,0,0,0,.6.916l3.253,1.426a1,1,0,0,0,.717.033L30,51.456,27,46Z" fill="#e8bb94"/>
      <path id="Path_167" data-name="Path 167" d="M54.871,14.983h-.85c-2.018,0-3.776,2.553-3.9,4.679,0,.36,0,.593,0,.593s5.784-1.278,4.88-5.23l-.13-.042Z" fill="#c12929"/>
      <path id="Path_168" data-name="Path 168" d="M22.121,51.3a1,1,0,0,1-.6-.916L19,61h4l2.374-8.277Z" fill="#edbf36"/>
      <path id="Path_169" data-name="Path 169" d="M57,12.073c-.585-.054-2,2.951-2,2.951l6,1.042S61.9,12.528,57,12.073Z" fill="#edbf36"/>
      <path id="Path_170" data-name="Path 170" d="M14.251,60.109a4.779,4.779,0,0,0-.6-8.41C11.045,50.356,3,51.812,3,55.716c0,4.254,8.353,6.311,11.251,4.393Z" fill="#f4c69d"/>
      <path id="Path_171" data-name="Path 171" d="M41.695,11.31c-.455,1.155-.661,2.4-1.187,3.526-2.453,5.241-11.961,11.443-17.4,11.391a4.1,4.1,0,0,1-3.975-3.271c-.121-.774-2.069-6.107-3.524-7.835-2.451-2.909-5.267-3.164-8.767-3.6a3.408,3.408,0,0,0-3.578,1.911,3.256,3.256,0,0,0-.2,1.924L4.095,20l.007.017a7.952,7.952,0,0,0,2.17,10.468,4.414,4.414,0,0,0,.654,4.236A5.086,5.086,0,0,0,11,37.039,8,8,0,0,0,14.2,43.4a18.375,18.375,0,0,0,4.222,2.284c1.348.542,6.688.653,7.7,1.789,1.1,1.225,1.829,2.829,3.286,3.695a5.947,5.947,0,0,0,1.871.668A23.787,23.787,0,0,0,36,52c1.683,0,2.756-1.844,3.691-2.97a11.2,11.2,0,0,1,3.517-3.036c5.614-2.431,7.2-6.728,8-13.189.385-3.1-.8-9.583-1.09-12.55-.214-2.209,1.691-5.271,3.9-5.271H55l2-2.91c0-8-12.308-8.375-15.305-.764Z" fill="#f4cdab"/>
      <path id="Path_172" data-name="Path 172" d="M32,52l2,9h4l-2-9Z" fill="#edbf36"/>
      <path id="Path_173" data-name="Path 173" d="M51.21,29.975c-.8,6.461-2.391,10.758-8,13.189A11.216,11.216,0,0,0,39.689,46.2c-.935,1.126-2.008,2.97-3.691,2.97a23.787,23.787,0,0,1-4.715-.163,5.972,5.972,0,0,1-1.871-.668c-1.456-.866-2.19-2.47-3.286-3.695-1.016-1.136-6.355-1.247-7.7-1.789A18.375,18.375,0,0,1,14.2,40.571,8,8,0,0,1,11,34.209a5.085,5.085,0,0,1-4.076-2.318,5.356,5.356,0,0,1-.681-1.311,4.4,4.4,0,0,0,.681,4.141A5.086,5.086,0,0,0,11,37.039,8,8,0,0,0,14.2,43.4a18.375,18.375,0,0,0,4.222,2.284c1.348.542,6.688.653,7.7,1.789,1.1,1.225,1.829,2.829,3.286,3.695a5.947,5.947,0,0,0,1.871.668A23.787,23.787,0,0,0,36,52c1.683,0,2.756-1.844,3.691-2.97a11.2,11.2,0,0,1,3.517-3.036c5.614-2.431,7.2-6.728,8-13.189a17.378,17.378,0,0,0,.019-3.047c-.007.071-.011.149-.019.217Z" fill="#f4c59c"/>
      <path id="Path_174" data-name="Path 174" d="M14.251,57.279c-2.54,1.681-9.269.307-10.893-2.922A2.773,2.773,0,0,0,3,55.716c0,4.254,8.353,6.311,11.251,4.393a4.654,4.654,0,0,0,2.01-5.383,4.895,4.895,0,0,1-2.01,2.553Z" fill="#f4bd8e"/>
      <path id="Path_175" data-name="Path 175" d="M7.926,17.75l-.879-1.8a9.03,9.03,0,0,1,4.507-.895l-.12,2A7.05,7.05,0,0,0,7.926,17.75Z" fill="#f4c59c"/>
      <path id="Path_176" data-name="Path 176" fill="none"/>
      <path id="Path_177" data-name="Path 177" d="M41,62H34a1,1,0,0,1,0-2h7a1,1,0,0,1,0,2Z" fill="#edbf36"/>
      <path id="Path_178" data-name="Path 178" d="M27,62H19a1,1,0,0,1,0-2h8a1,1,0,0,1,0,2Z" fill="#edbf36"/>
      <circle id="Ellipse_11" data-name="Ellipse 11" cx="1.282" cy="1.282" r="1.282" transform="translate(50.436 9.072)"/>
      <g id="Group_40" data-name="Group 40">
        <path id="Path_179" data-name="Path 179" d="M34.509,30.093a1.758,1.758,0,0,1-1.554-.748c-.891-1.312.339-3.666,1.151-4.952L35.8,25.461a8.558,8.558,0,0,0-1.154,2.624c.036,0,.077-.011.124-.02,1.789-.335,4.285-4.169,5.438-6.507L42,22.442c-.35.71-3.515,6.961-6.863,7.589a3.4,3.4,0,0,1-.627.062Z" fill="#f4c59c"/>
        <path id="Path_180" data-name="Path 180" d="M42.834,31.085a2.119,2.119,0,0,1-1.809-.779,2.889,2.889,0,0,1,.036-2.833l1.782.907-.891-.454.894.449a2.05,2.05,0,0,0-.2.7,2.227,2.227,0,0,0,.731-.046,8.616,8.616,0,0,0,4.031-1.82l1.388,1.44a10.429,10.429,0,0,1-5.05,2.346,4.866,4.866,0,0,1-.913.093Z" fill="#f4c59c"/>
      </g>
    </g>
  </g>
</svg>
