<svg xmlns="http://www.w3.org/2000/svg" width="423.727" height="234.866" viewBox="0 0 423.727 234.866">
  <g id="img-show" transform="translate(-45.273 -307.372)">
    <g id="glass" transform="translate(-142 -67)">
      <path id="Path_121" data-name="Path 121" d="M253.676,435.3v-6.015a3.105,3.105,0,1,0-6.21,0V435.3Z" transform="translate(29.012 109.138)" fill="#09a76d"/>
      <path id="Path_122" data-name="Path 122" d="M302.4,435.3v-6.015a3.105,3.105,0,1,0-6.21,0V435.3Z" transform="translate(0.463 109.138)" fill="#09a76d"/>
      <path id="Path_123" data-name="Path 123" d="M227.627,434.89l-68.95-2-1-3.6a3.105,3.105,0,1,0-6.21,0v5.6H137.506v-5.6a3.105,3.105,0,1,0-6.21,0v5.6l-63.751-1.061L54.3,433.89v-4.6a3.105,3.105,0,1,0-6.21,0v4.6l-12.98,1a3.105,3.105,0,0,0,0,6.21H227.627a3.105,3.105,0,0,0,0-6.21Z" transform="translate(155.268 109.138)" fill="#8bc727"/>
    </g>
    <g id="glass-2" data-name="glass" transform="translate(9 -8)">
      <path id="Path_121-2" data-name="Path 121" d="M253.676,435.3v-6.015a3.105,3.105,0,1,0-6.21,0V435.3Z" transform="translate(-9.988 108.138)" fill="#09a76d"/>
      <path id="Path_122-2" data-name="Path 122" d="M302.4,435.3v-6.015a3.105,3.105,0,1,0-6.21,0V435.3Z" transform="translate(-16.537 109.138)" fill="#09a76d"/>
      <path id="Path_123-2" data-name="Path 123" d="M134.627,434.89c-69.95-1.715-83.1-3.628-99.517,0a3.105,3.105,0,0,0,0,6.21h99.517a3.105,3.105,0,0,0,0-6.21Z" transform="translate(155.268 109.138)" fill="#8bc727"/>
    </g>
    <g id="cow_3_" data-name="cow (3)" transform="translate(71.599 305.372)">
      <g id="Group_14" data-name="Group 14" transform="translate(2 58.677)">
        <path id="Path_71" data-name="Path 71" d="M7.668,98.513H2V51.132A30.316,30.316,0,0,1,23.894,22.108,2.854,2.854,0,0,1,24.671,22h5.668v5.668h-5.26A24.624,24.624,0,0,0,7.668,51.132Z" transform="translate(-2 -22)" fill="#a8b0bc"/>
      </g>
      <g id="Group_16" data-name="Group 16" transform="translate(61.51 134.19)">
        <g id="Group_15" data-name="Group 15">
          <path id="Path_72" data-name="Path 72" d="M23,49h5.668v4.767l-2.834,1.569L23,53.767Z" transform="translate(-23 -49)" fill="#a8b0bc"/>
        </g>
      </g>
      <g id="Group_18" data-name="Group 18" transform="translate(72.846 134.19)">
        <g id="Group_17" data-name="Group 17">
          <path id="Path_73" data-name="Path 73" d="M27,49h5.668v4.968l-2.834,1.367L27,53.968Z" transform="translate(-27 -49)" fill="#a8b0bc"/>
        </g>
      </g>
      <path id="Path_74" data-name="Path 74" d="M51,19l-.952-1.428A28.075,28.075,0,0,1,45.335,2L38.959,6.781A12.4,12.4,0,0,0,37.633,25.47L39.668,27.5" transform="translate(58.683)" fill="#a8b0bc"/>
      <path id="Path_75" data-name="Path 75" d="M52,19l.952-1.428A28.075,28.075,0,0,0,57.668,2l6.376,4.781A12.4,12.4,0,0,1,65.37,25.47L63.335,27.5" transform="translate(91.692)" fill="#a8b0bc"/>
      <path id="Path_76" data-name="Path 76" d="M56.506,12h3.375A12.2,12.2,0,0,1,72.075,24.194v7.643H68.623A12.2,12.2,0,0,1,60,28.266l-2.094-2.1-.368-.53" transform="translate(99.955 18.338)" fill="#c66b60"/>
      <path id="Path_77" data-name="Path 77" d="M5.4,63.72a8.508,8.508,0,0,1-3.4-6.8V47l6.637,3.318a8.5,8.5,0,0,1,4.7,7.6V69.671Z" transform="translate(0 82.522)" fill="#52565a"/>
      <path id="Path_78" data-name="Path 78" d="M54.006,45c0,7.824-7.612,14.169-17,14.169S20,52.824,20,45" transform="translate(33.009 78.855)" fill="#c66b60"/>
      <path id="Path_79" data-name="Path 79" d="M53.4,84.043v-.4l.93-3.718a158.757,158.757,0,0,0,4.738-38.489v-.51A36.746,36.746,0,0,1,48.335,52.071l-.6.4-.181.142q-.451,14.04-2,28.015l-.5,4.506A10.714,10.714,0,0,1,53.4,84.043Z" transform="translate(78.952 71.384)" fill="#a8b0bc"/>
      <path id="Path_80" data-name="Path 80" d="M26.271,78.359l-.1-.434L27.4,69.31A159.384,159.384,0,0,0,29,46.753v-1.08c-1.02-.3-2.052-.55-3.061-.884L23.7,44.044a133.192,133.192,0,0,0-8.864,33.85l-.006.031H12a11.1,11.1,0,0,1,5.682,1.564,10.706,10.706,0,0,1,8.589-1.131Z" transform="translate(18.338 77.102)" fill="#a8b0bc"/>
      <path id="Path_81" data-name="Path 81" d="M136.22,74.344v.122a36.837,36.837,0,0,1-16.405,30.654l-.6.4-.181.142q-.451,14.04-2,28.015l-.652,5.849H105.048l-.827-3.724a202.983,202.983,0,0,1-4.534-33.025l-.006-.091h-.3l-2.607.87a93.557,93.557,0,0,1-29.571,4.8H66.38a93.574,93.574,0,0,1-29.574-4.8l-2.239-.745a133.193,133.193,0,0,0-8.864,33.85l-.045.38-7.969,1.618L8.7,102.683,6.13,64.171a25.533,25.533,0,0,1,.706-7.881l.3-1.21A25.5,25.5,0,0,1,29.572,35.867l44.3-4.03V24.163A12.164,12.164,0,0,1,86.039,12h7.674" transform="translate(7.471 18.338)" fill="#e3e4e5"/>
      <path id="Path_82" data-name="Path 82" d="M37.834,69.344,35.057,30.45C35.02,29.931,35,29.41,35,28.891A21.889,21.889,0,0,1,56.888,7H75.453A21.889,21.889,0,0,1,97.344,28.889c0,.521-.02,1.04-.057,1.559l-2.777,38.9" transform="translate(60.516 9.169)" fill="#ebf7fe"/>
      <path id="Path_83" data-name="Path 83" d="M44.169,19.719A21.736,21.736,0,0,1,45.6,12h-3.4A12.2,12.2,0,0,0,30,24.194v7.643h3.452a12.2,12.2,0,0,0,8.623-3.571l2.094-2.1.3-1.491-.244-3.4c-.034-.519-.054-1.04-.054-1.561Z" transform="translate(51.347 18.338)" fill="#c66b60"/>
      <path id="Path_84" data-name="Path 84" d="M55.837,24a26.4,26.4,0,0,1,8.5,1.383A26.4,26.4,0,0,1,72.84,24C83.8,24,92.677,30.345,92.677,38.169S83.8,52.338,72.84,52.338a26.4,26.4,0,0,1-8.5-1.383,26.4,26.4,0,0,1-8.5,1.383C44.881,52.338,36,45.993,36,38.169S44.881,24,55.837,24Z" transform="translate(62.35 40.344)" fill="#c66b60"/>
      <path id="Path_85" data-name="Path 85" d="M55.284,7H53.677a22.651,22.651,0,0,0,22.37,38.421L77.115,30.45c.037-.519.057-1.04.057-1.559A21.889,21.889,0,0,0,55.284,7Z" transform="translate(80.689 9.169)" fill="#52565a"/>
      <path id="Path_86" data-name="Path 86" d="M33.335,30A11.336,11.336,0,0,1,44.671,41.335c0,.142-.037.272-.043.414a11.211,11.211,0,0,1,2.876-.414A11.335,11.335,0,1,1,36.169,52.671c0-.142.037-.272.043-.414a11.211,11.211,0,0,1-2.876.414,11.335,11.335,0,1,1,0-22.671Z" transform="translate(36.677 51.347)" fill="#52565a"/>
      <g id="Group_19" data-name="Group 19" transform="translate(138.024 72.846)">
        <path id="Path_87" data-name="Path 87" d="M54.251,35.5A4.251,4.251,0,1,1,58.5,31.251,4.256,4.256,0,0,1,54.251,35.5Z" transform="translate(-50 -27)" fill="#e47c6e"/>
      </g>
      <g id="Group_20" data-name="Group 20" transform="translate(106.852 72.846)">
        <path id="Path_88" data-name="Path 88" d="M43.251,35.5A4.251,4.251,0,1,1,47.5,31.251,4.256,4.256,0,0,1,43.251,35.5Z" transform="translate(-39 -27)" fill="#e47c6e"/>
      </g>
      <g id="Group_21" data-name="Group 21" transform="translate(140.858 38.84)">
        <path id="Path_89" data-name="Path 89" d="M55.251,23.5A4.251,4.251,0,1,1,59.5,19.251,4.256,4.256,0,0,1,55.251,23.5Z" transform="translate(-51 -15)" fill="#243242"/>
      </g>
      <g id="Group_22" data-name="Group 22" transform="translate(104.018 38.84)">
        <path id="Path_90" data-name="Path 90" d="M42.251,23.5A4.251,4.251,0,1,1,46.5,19.251,4.256,4.256,0,0,1,42.251,23.5Z" transform="translate(-38 -15)" fill="#243242"/>
      </g>
      <path id="Path_91" data-name="Path 91" d="M23.335,56A11.336,11.336,0,0,1,34.671,67.335V73H12V67.335A11.336,11.336,0,0,1,23.335,56Z" transform="translate(18.338 99.027)" fill="#243242"/>
      <path id="Path_92" data-name="Path 92" d="M19.335,56A11.336,11.336,0,0,1,30.671,67.335V73H8V67.335A11.336,11.336,0,0,1,19.335,56Z" transform="translate(11.003 99.027)" fill="#52565a"/>
      <g id="Group_23" data-name="Group 23" transform="translate(27.504 163.528)">
        <path id="Path_93" data-name="Path 93" d="M11,59h5.668v8.5H11Z" transform="translate(-11 -59)" fill="#243242"/>
      </g>
      <path id="Path_94" data-name="Path 94" d="M54.335,56A11.336,11.336,0,0,1,65.671,67.335V73H43V67.335A11.336,11.336,0,0,1,54.335,56Z" transform="translate(75.187 99.027)" fill="#243242"/>
      <path id="Path_95" data-name="Path 95" d="M50.335,56A11.336,11.336,0,0,1,61.671,67.335V73H39V67.335A11.336,11.336,0,0,1,50.335,56Z" transform="translate(67.852 99.027)" fill="#52565a"/>
      <g id="Group_24" data-name="Group 24" transform="translate(115.353 163.528)">
        <path id="Path_96" data-name="Path 96" d="M42,59h5.668v8.5H42Z" transform="translate(-42 -59)" fill="#243242"/>
      </g>
      <g id="Group_25" data-name="Group 25" transform="translate(13.916 51.816)">
        <path id="Path_97" data-name="Path 97" d="M15,29.274a14.169,14.169,0,1,0,24.456-9.695L17.287,21.594A14.082,14.082,0,0,0,15,29.274Z" transform="translate(9.924 -19.579)" fill="#52565a"/>
        <path id="Path_98" data-name="Path 98" d="M8.458,32a14.082,14.082,0,0,0-2.253.227L8.075,60.3c.13.006.252.04.383.04A14.169,14.169,0,0,0,8.458,32Z" transform="translate(-6.205 3.199)" fill="#52565a"/>
      </g>
    </g>
    <g id="cow_4_" data-name="cow (4)" transform="translate(257.022 257.698)">
      <path id="Path_40" data-name="Path 40" d="M119.789,378.663V341.717h-3.963a12.207,12.207,0,0,1-12.192-12.193h-.414v49.139Z" transform="translate(-60.484 -163.92)" fill="#ea9b58"/>
      <path id="Path_41" data-name="Path 41" d="M111.624,378.663V340.97a12.214,12.214,0,0,1-7.991-11.446h-.414v49.139Z" transform="translate(-60.484 -163.92)" fill="#c57a44"/>
      <path id="Path_42" data-name="Path 42" d="M353.888,358.974h16.57V395.92h-16.57Z" transform="translate(-207.371 -181.177)" fill="#d88a55"/>
      <path id="Path_43" data-name="Path 43" d="M353.888,358.974h8.405V395.92h-8.405Z" transform="translate(-207.371 -181.177)" fill="#c57a44"/>
      <path id="Path_44" data-name="Path 44" d="M353.888,422.99h16.57v10.442h-16.57Z" transform="translate(-207.371 -218.689)" fill="#32569d"/>
      <path id="Path_45" data-name="Path 45" d="M353.888,422.99h8.405v10.442h-8.405Z" transform="translate(-207.371 -218.689)" fill="#303a78"/>
      <path id="Path_46" data-name="Path 46" d="M115.825,214.907h16.331a4.2,4.2,0,0,1,4.2,4.2v32.33h16.57v-32.33a4.2,4.2,0,0,1,4.2-4.2h78.807a4.2,4.2,0,0,1,4.2,4.2v32.33h16.57V141.827A29.416,29.416,0,0,0,227.3,112.411H163.682a15.692,15.692,0,0,1-17.015,4.991l-.542-.176v21.529a32.228,32.228,0,0,1-4.844,16.986l-.1.155.049.175a14.83,14.83,0,0,1,.554,4v1.634a14.951,14.951,0,0,1-14.934,14.934H103.219V202.3A12.606,12.606,0,0,0,115.825,214.907Z" transform="translate(-60.484 -36.696)" fill="#ea9b58"/>
      <path id="Path_47" data-name="Path 47" d="M115.826,293.21V267.552H103.218V293.21a12.607,12.607,0,0,0,12.607,12.607h12.608A12.607,12.607,0,0,1,115.826,293.21Z" transform="translate(-60.484 -127.605)" fill="#d88a55"/>
      <path id="Path_48" data-name="Path 48" d="M80,66.177V55.194a5.422,5.422,0,0,0-5.406-5.406h-.575a5.422,5.422,0,0,0-5.406,5.406V66.177Z" transform="translate(-40.206 0)" fill="#edcab2"/>
      <path id="Path_49" data-name="Path 49" d="M172.336,66.177V55.194a5.422,5.422,0,0,0-5.406-5.406h-.575a5.422,5.422,0,0,0-5.406,5.406V66.177Z" transform="translate(-94.313 0)" fill="#edcab2"/>
      <path id="Path_50" data-name="Path 50" d="M223.419,88.374H206.85v15.2a16.14,16.14,0,0,0,20.531-9.591A4.192,4.192,0,0,0,223.419,88.374Z" transform="translate(-121.21 -22.611)" fill="#f6a96c"/>
      <path id="Path_51" data-name="Path 51" d="M20.79,88.374H4.221A4.192,4.192,0,0,0,.259,93.983a16.141,16.141,0,0,0,20.531,9.591Z" transform="translate(0 -22.611)" fill="#f6a96c"/>
      <path id="Path_52" data-name="Path 52" d="M8.665,93.983a4.192,4.192,0,0,1,3.962-5.609H4.221A4.192,4.192,0,0,0,.259,93.983a16.138,16.138,0,0,0,19.328,9.965A16.165,16.165,0,0,1,8.665,93.983Z" transform="translate(0 -22.611)" fill="#ea9b58"/>
      <path id="Path_53" data-name="Path 53" d="M49.216,88.374v36.3a32.571,32.571,0,0,0,5.2,17.668A14.959,14.959,0,0,1,68.9,131.055H95.209a14.959,14.959,0,0,1,14.481,11.282,32.57,32.57,0,0,0,5.2-17.668v-36.3Z" transform="translate(-28.84 -22.611)" fill="#d88a55"/>
      <path id="Path_54" data-name="Path 54" d="M62.753,132.385a32.586,32.586,0,0,1-.929-7.715v-36.3H49.216v36.3a32.574,32.574,0,0,0,5.2,17.668A14.994,14.994,0,0,1,62.753,132.385Z" transform="translate(-28.84 -22.611)" fill="#c57a44"/>
      <path id="Path_55" data-name="Path 55" d="M90.469,149.756a3.1,3.1,0,0,1-3.105-3.105v-6.337a3.105,3.105,0,1,1,6.21,0v6.337A3.1,3.1,0,0,1,90.469,149.756Z" transform="translate(-51.194 -51.227)" fill="#303a78"/>
      <path id="Path_56" data-name="Path 56" d="M157.805,149.756a3.1,3.1,0,0,1-3.105-3.105v-6.337a3.105,3.105,0,1,1,6.21,0v6.337A3.1,3.1,0,0,1,157.805,149.756Z" transform="translate(-90.651 -51.227)" fill="#303a78"/>
      <path id="Path_57" data-name="Path 57" d="M101.346,222.793H75.039a15.393,15.393,0,0,1-15.348-15.348v-1.634a15.393,15.393,0,0,1,15.348-15.348h26.307a15.393,15.393,0,0,1,15.348,15.348v1.634A15.393,15.393,0,0,1,101.346,222.793Z" transform="translate(-34.978 -82.433)" fill="#f5e2d4"/>
      <path id="Path_58" data-name="Path 58" d="M68.937,207.213v-1.171a15.625,15.625,0,0,1,15.58-15.58H75.271a15.625,15.625,0,0,0-15.58,15.58v1.171a15.625,15.625,0,0,0,15.58,15.58h9.246A15.625,15.625,0,0,1,68.937,207.213Z" transform="translate(-34.978 -82.433)" fill="#edcab2"/>
      <path id="Path_59" data-name="Path 59" d="M253.676,435.3v-6.015a3.105,3.105,0,1,0-6.21,0V435.3Z" transform="translate(-145.01 -220.561)" fill="#09a76d"/>
      <path id="Path_60" data-name="Path 60" d="M302.4,435.3v-6.015a3.105,3.105,0,1,0-6.21,0V435.3Z" transform="translate(-173.559 -220.561)" fill="#09a76d"/>
      <path id="Path_61" data-name="Path 61" d="M55.75,435.3v-6.015a3.105,3.105,0,1,0-6.21,0V435.3Z" transform="translate(-29.029 -220.561)" fill="#09a76d"/>
      <g id="Group_13" data-name="Group 13" transform="translate(36.662 119.58)">
        <path id="Path_62" data-name="Path 62" d="M96.7,224.57H91.657a3.105,3.105,0,1,1,0-6.21H96.7a3.105,3.105,0,1,1,0,6.21Z" transform="translate(-88.552 -218.36)" fill="#32569d"/>
        <path id="Path_63" data-name="Path 63" d="M149.481,224.57h-5.043a3.105,3.105,0,1,1,0-6.21h5.043a3.105,3.105,0,1,1,0,6.21Z" transform="translate(-119.481 -218.36)" fill="#32569d"/>
        <path id="Path_64" data-name="Path 64" d="M103.218,422.99h16.57v10.442h-16.57Z" transform="translate(-97.146 -338.269)" fill="#32569d"/>
      </g>
      <path id="Path_65" data-name="Path 65" d="M103.218,422.99h8.405v10.442h-8.405Z" transform="translate(-60.484 -218.689)" fill="#303a78"/>
      <path id="Path_66" data-name="Path 66" d="M433.933,422.99H450.5v10.442h-16.57Z" transform="translate(-254.276 -218.689)" fill="#32569d"/>
      <path id="Path_67" data-name="Path 67" d="M433.933,422.99h8.405v10.442h-8.405Z" transform="translate(-254.276 -218.689)" fill="#303a78"/>
      <path id="Path_68" data-name="Path 68" d="M183.264,422.99h16.57v10.442h-16.57Z" transform="translate(-107.389 -218.689)" fill="#32569d"/>
      <path id="Path_69" data-name="Path 69" d="M183.264,422.99h8.405v10.442h-8.405Z" transform="translate(-107.389 -218.689)" fill="#303a78"/>
      <path id="Path_70" data-name="Path 70" d="M227.627,434.89l-69.95-3v-2.6a3.105,3.105,0,1,0-6.21,0v2.6H137.506v-2.6a3.105,3.105,0,1,0-6.21,0v2.6l-77,3v-5.6a3.105,3.105,0,1,0-6.21,0v5.6H35.11a3.105,3.105,0,0,0,0,6.21H227.627a3.105,3.105,0,0,0,0-6.21Z" transform="translate(-18.754 -220.561)" fill="#8bc727"/>
    </g>
    <g id="pig" transform="translate(189 390)">
      <path id="Path_99" data-name="Path 99" d="M50.038,45.469l-3.814-3.117c3.632-4.444,11.557-8.679,13.111-9.487l.066-.034c-.209-1.061-.411-2.164-.608-3.316a4.879,4.879,0,0,1,4.087-5.66c.426,2.9.854,5.463,1.312,7.815,3.1-.062,6.232,1.032,7.67,3.1.657.945,2.442,4.353-2.177,8.541a4.228,4.228,0,0,1-4.223,1.059c-2.9-.9-4.41-4.823-4.944-6.557-3.73,2.036-8.352,5.052-10.481,7.657ZM65.3,36.62a9.986,9.986,0,0,0,1.376,2.755c1.071-1.056,1.219-1.684,1.142-1.795A3.873,3.873,0,0,0,65.3,36.62Z" transform="translate(51.502 30.491)" fill="#e3bdbd"/>
      <path id="Path_100" data-name="Path 100" d="M84.48,111.8l-.52.261s14.128-27.583,14.773-51.7c.4-14.879-4.25-24.264-12.244-33.367-.8-.909-1.652-1.765-2.529-2.6l-54.167.261c-9.418,9.514-14,15.979-14.773,33.239-.817,18.207,12.638,49.673,16.408,53.8a3.029,3.029,0,0,0-4.1,2.829H44.567V90.893c0-.332.012-.665.039-.992l24.582.992v23.629h19.7a3.044,3.044,0,0,0-4.4-2.723Z" transform="translate(5.827 31.281)" fill="#ffd4d4"/>
      <g id="Group_26" data-name="Group 26" transform="translate(30.697 55.675)">
        <path id="Path_101" data-name="Path 101" d="M36.633,63.35c-3.122-2.5-7.689-11.459-10.2-18.377a3.214,3.214,0,0,0-6.173,1.682c1.384,7.2,5.057,14.994,10.486,19.335a29.573,29.573,0,0,0,6.192,3.8V63.837c0-.094.01-.185.012-.278-.1-.076-.217-.128-.318-.209Z" transform="translate(-17.241 2.66)" fill="#f2c9c9"/>
        <path id="Path_102" data-name="Path 102" d="M43.387,65.992A29.575,29.575,0,0,0,54.27,46.474,3.221,3.221,0,0,0,51.062,42.9H49.424a3.171,3.171,0,0,0-3.149,2.6c-1.544,9.07-5.124,14.962-8.741,17.858-.224.18-.475.3-.707.473l.423.017v5.921a29.5,29.5,0,0,0,6.136-3.77Z" transform="translate(7.067 2.66)" fill="#f2c9c9"/>
        <path id="Path_103" data-name="Path 103" d="M80.619,26.989c-.8-.909-1.652-1.765-2.529-2.6l-54.167.261C22.1,26.494,20.467,28.22,19,29.934v3.058A25.254,25.254,0,0,0,37.318,57.273L48.1,60.356h5.82L64.7,57.276A25.247,25.247,0,0,0,83.015,32.992v-3.1c-.766-.973-1.551-1.94-2.4-2.9Z" transform="translate(-19 -24.394)" fill="#f2c9c9"/>
      </g>
      <path id="Path_104" data-name="Path 104" d="M23.828,46.432a20.174,20.174,0,0,0,40.283-1.625" transform="translate(18.756 61.127)" fill="#ffd4d4"/>
      <path id="Path_105" data-name="Path 105" d="M114.409,3,100.695,7.114A31.619,31.619,0,0,0,83.47,19.863l-3.531,5.3L72.2,22.064a25.563,25.563,0,0,0-18.993,0L45.47,25.159l-3.531-5.3A31.634,31.634,0,0,0,24.714,7.112L11,3s2.462,7.386,2.462,12.311-4.924,19.7,2.462,24.621S28.235,42.394,30.7,42.394l4.924,7.386V61.1a21.371,21.371,0,0,0,15.5,20.549l9.122,2.6h4.924l9.122-2.607A21.371,21.371,0,0,0,89.788,61.1V49.78l4.924-7.386c2.462,0,7.386,2.462,14.773-2.462s2.462-19.7,2.462-24.621S114.409,3,114.409,3Z" transform="translate(0 0)" fill="#ffd4d4"/>
      <ellipse id="Ellipse_2" data-name="Ellipse 2" cx="12.5" cy="11.5" rx="12.5" ry="11.5" transform="translate(50 54)" fill="#ffb5b5"/>
      <path id="Path_106" data-name="Path 106" d="M63,38.294c7.386-4.924,2.462-19.7,2.462-24.621A40.432,40.432,0,0,1,67.1,4.12c-3.952,1.458-21.152,8.814-23.8,19.4-2.462,9.848,4.924,17.235,4.924,17.235C50.685,40.756,55.609,43.218,63,38.294Z" transform="translate(46.489 1.638)" fill="#ffc9c9"/>
      <path id="Path_107" data-name="Path 107" d="M14.577,4.073,11,3s2.462,7.386,2.462,12.311-4.924,19.7,2.462,24.621S28.235,42.394,30.7,42.394l.291.433c2.1-5.641,7.1-10.282,4.634-17.668C34.112,20.634,23.306,10.49,14.577,4.073Z" transform="translate(0 0)" fill="#ffc9c9"/>
      <path id="Path_108" data-name="Path 108" d="M30,28h2.462v4.924H30Z" transform="translate(27.78 36.553)" fill="#8f5151"/>
      <path id="Path_109" data-name="Path 109" d="M33,28h2.462v4.924H33Z" transform="translate(32.167 36.553)" fill="#8f5151"/>
      <ellipse id="Ellipse_3" data-name="Ellipse 3" cx="2" cy="2.5" rx="2" ry="2.5" transform="translate(46 45)"/>
      <circle id="Ellipse_4" data-name="Ellipse 4" cx="2.5" cy="2.5" r="2.5" transform="translate(75 45)"/>
    </g>
  </g>
</svg>
