<svg id="Layer_1" enable-background="new 0 0 512 512" height="512" viewBox="0 0 512 512" width="512" xmlns="http://www.w3.org/2000/svg"><g><g><g><g id="XMLID_1290_"><g id="XMLID_1291_"><g id="XMLID_1301_"><g id="XMLID_1302_"><g id="XMLID_1303_"><g id="XMLID_1304_"><g id="XMLID_1305_"><g id="XMLID_1306_"><g id="XMLID_1307_"><g id="XMLID_1386_"><g id="XMLID_1387_"><g id="XMLID_1388_"><g id="XMLID_1389_"><g id="XMLID_1390_"><g><path d="m512 256c0 70.28-28.33 133.96-74.19 180.22 0 0-110.71 14.385-181.81 14.385s-181.81-14.385-181.81-14.385c-45.86-46.26-74.19-109.94-74.19-180.22 0-141.38 114.62-256 256-256s256 114.62 256 256z" fill="#605553"/></g></g></g></g></g></g></g></g></g></g></g></g></g></g></g></g></g><path d="m437.81 436.22c45.86-46.26 74.19-109.94 74.19-180.22 0-12.503-.914-24.792-2.646-36.816l-134.77-134.77-257.094 84.617 25.909 26.07-5.661 16.16 42.727 42.525c8.818 15.941 21.254 30.071 21.254 30.071l5.451 5.517 5.099 63.693-138.079 83.153s110.71 14.385 181.81 14.385 181.81-14.385 181.81-14.385z" fill="#4c403f"/><g><g><g><g><path d="m202.823 276.039h106.354v82.877h-106.354z" fill="#ffc48a"/></g><g><g><path d="m256 276.043h53.177v82.876h-53.177z" fill="#ffaf78"/></g></g><path d="m344.315 450.605h-176.63l35.138-106.983h106.354z" fill="#ffdaae"/><path d="m309.177 343.622 35.138 106.983h-88.315v-106.983z" fill="#ffc48a"/></g><g><path d="m362.667 139.805c-4.504-66.299-59.842-90.805-106.667-90.805s-102.163 24.506-106.667 90.805c-12.117 2.27-20.715 17.66-19.367 30.111l2.086 28.323c1.415 13.07 13.267 22.605 26.336 21.189l2.251-.243c26.755 69.642 68.726 87.572 95.361 91.646 26.635-4.073 68.606-22.004 95.361-91.646l2.251.243c13.07 1.416 24.921-8.12 26.336-21.189l2.086-28.323c1.349-12.451-7.25-27.841-19.367-30.111z" fill="#ffdaae"/><g><path d="m362.667 139.805c12.117 2.27 20.716 17.66 19.367 30.111l-2.086 28.323c-1.415 13.07-13.267 22.605-26.336 21.189l-2.251-.243c-26.754 69.642-68.726 87.572-95.361 91.646v-261.831c46.825 0 102.163 24.506 106.667 90.805z" fill="#ffc48a"/></g><g><path d="m274.932 206.177h-37.865c-14.079 0-25.599 11.519-25.599 25.599h.068c.679 7.099 6.655 12.651 13.931 12.651 2.925 0 5.635-.902 7.878-2.438 1.381-.946 3.218-.946 4.599 0 2.243 1.536 4.953 2.438 7.877 2.438 2.925 0 5.635-.902 7.878-2.438 1.381-.946 3.218-.946 4.599 0 2.243 1.536 4.953 2.438 7.878 2.438s5.635-.902 7.878-2.438c1.381-.946 3.218-.946 4.599 0 2.243 1.536 4.953 2.438 7.878 2.438 7.276 0 13.252-5.553 13.931-12.651h.068c.001-14.079-11.518-25.599-25.598-25.599z" fill="#eef9ff"/></g></g></g><path d="m437.81 415.01v21.21c-46.39 46.8-110.71 75.78-181.81 75.78s-135.42-28.98-181.81-75.78v-21.21c0-28.85 20.87-53.48 49.34-58.21l79.29-13.17 29.68 41.5c11.52 16.12 35.48 16.12 47 0l29.68-41.5 79.29 13.17c28.47 4.73 49.34 29.36 49.34 58.21z" fill="#6ae1db"/><g><path d="m193.691 120.235c2.454-4.655 3.849-9.954 3.849-15.581 0-18.485-14.985-33.471-33.471-33.471s-33.471 14.985-33.471 33.471c0 2.063.197 4.078.554 6.038-15.187 2.858-26.68 16.183-26.68 32.2 0 18.101 14.674 32.774 32.775 32.774 5.972 0 11.565-1.605 16.387-4.396 4.822 2.79 10.416 4.396 16.387 4.396 18.101 0 32.775-14.674 32.775-32.774 0-8.793-3.469-16.77-9.105-22.657z" fill="#eef9ff"/><path d="m318.309 120.235c-2.453-4.655-3.849-9.954-3.849-15.581 0-18.485 14.985-33.471 33.471-33.471 18.485 0 33.471 14.985 33.471 33.471 0 2.063-.197 4.078-.554 6.038 15.187 2.858 26.68 16.183 26.68 32.2 0 18.101-14.674 32.774-32.775 32.774-5.972 0-11.565-1.605-16.387-4.396-4.822 2.79-10.416 4.396-16.387 4.396-18.101 0-32.775-14.674-32.775-32.774 0-8.793 3.469-16.77 9.105-22.657z" fill="#d2ebff"/></g><path d="" fill="#4c403f"/><path d="m437.81 415.01v21.21c-46.39 46.8-110.71 75.78-181.81 75.78v-114.78c8.87 0 17.74-4.03 23.5-12.09l29.68-41.5 79.29 13.17c28.47 4.73 49.34 29.36 49.34 58.21z" fill="#2fc1b6"/></g></g></svg>