<svg id="svg" version="1.1" xmlns="http://www.w3.org/2000/svg" xmlns:xlink="http://www.w3.org/1999/xlink" width="400" height="400" viewBox="0, 0, 400,400"><g id="svgg"><path id="path0" d="M0.000 200.000 L 0.000 400.000 200.000 400.000 L 400.000 400.000 400.000 200.000 L 400.000 0.000 200.000 0.000 L 0.000 0.000 0.000 200.000 M179.023 133.100 C 183.547 143.039,186.568 148.152,187.755 147.876 C 188.220 147.768,189.590 147.417,190.800 147.095 C 198.302 145.100,209.819 145.734,214.834 148.418 C 216.036 149.061,216.325 148.879,217.824 146.536 C 219.351 144.148,224.800 133.176,224.800 132.488 C 224.800 130.194,226.740 132.418,227.513 135.600 C 227.754 136.590,228.077 137.850,228.230 138.400 C 228.384 138.950,228.620 143.180,228.755 147.800 L 229.000 156.200 229.763 154.663 C 231.246 151.677,234.255 148.894,237.953 147.089 L 241.400 145.406 247.000 145.417 C 252.652 145.427,255.231 145.884,258.700 147.490 C 260.029 148.105,260.611 150.375,259.600 151.000 C 259.380 151.136,259.200 151.689,259.200 152.229 C 259.200 152.769,259.040 153.523,258.844 153.905 C 258.648 154.287,258.070 155.500,257.559 156.600 C 255.848 160.287,250.482 166.800,249.155 166.800 C 248.991 166.800,248.619 167.026,248.329 167.302 C 247.814 167.792,245.337 169.041,243.081 169.949 C 242.466 170.197,241.281 170.400,240.448 170.400 C 238.764 170.400,238.227 170.707,238.764 171.363 C 239.206 171.904,241.045 177.358,241.646 179.910 C 244.089 190.277,242.489 203.521,237.775 211.956 C 236.880 213.558,236.830 213.875,237.271 215.167 C 240.796 225.506,232.174 240.096,219.744 244.821 C 219.121 245.058,217.979 245.528,217.206 245.867 C 214.063 247.241,214.839 247.031,208.600 248.200 C 199.442 249.915,187.191 248.042,179.990 243.826 C 179.215 243.371,177.517 242.379,176.217 241.621 C 171.101 238.634,166.767 233.156,164.837 227.234 C 163.888 224.326,163.657 217.191,164.453 215.443 C 164.840 214.594,164.714 214.048,163.597 211.732 C 157.625 199.349,157.196 184.385,162.459 172.067 C 163.441 169.770,163.475 169.854,161.300 169.227 C 156.107 167.731,151.951 164.916,148.857 160.800 C 148.278 160.030,147.714 159.310,147.602 159.200 C 147.418 159.018,147.147 158.558,146.015 156.500 C 144.956 154.576,144.000 152.159,144.000 151.405 C 144.000 150.940,143.807 150.367,143.571 150.131 C 142.624 149.184,143.319 147.041,144.800 146.340 C 155.099 141.471,168.887 144.910,173.200 153.426 L 174.200 155.400 174.457 147.000 C 174.719 138.467,174.946 136.645,176.212 132.900 C 177.121 130.209,177.727 130.253,179.023 133.100 M122.400 203.957 C 122.400 204.847,121.652 205.200,119.767 205.200 C 118.515 205.200,118.400 205.301,118.400 206.400 C 118.400 207.507,118.510 207.600,119.813 207.600 C 122.063 207.600,122.348 209.117,120.146 209.375 C 119.516 209.448,118.865 209.529,118.700 209.554 C 117.183 209.785,118.567 211.967,120.300 212.078 C 123.780 212.301,122.997 213.800,119.400 213.800 L 116.600 213.800 116.487 209.023 C 116.342 202.915,116.190 203.200,119.587 203.200 C 122.080 203.200,122.400 203.286,122.400 203.957 M135.367 203.443 C 136.955 204.052,136.087 205.512,134.260 205.306 C 132.090 205.061,131.459 205.986,133.040 207.093 C 135.923 209.112,136.400 209.667,136.400 211.007 C 136.400 213.363,133.146 214.855,130.774 213.586 C 129.049 212.663,130.175 211.244,132.025 212.010 C 134.299 212.952,135.322 210.874,133.170 209.681 C 130.964 208.459,130.267 207.654,130.267 206.332 C 130.267 204.125,133.044 202.551,135.367 203.443 M151.326 203.751 C 151.613 204.500,150.838 205.200,149.720 205.200 C 148.819 205.200,148.800 205.286,148.800 209.357 C 148.800 212.520,148.668 213.565,148.249 213.726 C 147.147 214.149,146.800 213.056,146.800 209.165 L 146.800 205.289 145.400 205.026 C 144.108 204.784,143.620 204.113,144.267 203.467 C 144.815 202.918,151.103 203.171,151.326 203.751 M253.801 206.546 C 254.534 207.664,254.214 208.808,252.651 210.667 C 251.467 212.073,251.617 212.400,253.443 212.400 C 254.889 212.400,255.611 213.089,254.751 213.648 C 254.448 213.845,253.032 213.960,251.604 213.903 C 248.384 213.775,248.026 213.042,250.115 210.856 C 252.587 208.268,252.754 206.340,250.397 207.601 C 249.292 208.193,248.800 208.088,248.800 207.261 C 248.800 205.562,252.783 204.992,253.801 206.546 M268.182 205.848 C 269.156 206.222,270.000 208.155,270.000 210.011 C 270.000 214.425,264.176 215.570,262.808 211.425 C 261.584 207.717,264.680 204.505,268.182 205.848 M282.720 206.080 C 283.685 207.045,282.961 209.904,281.431 211.174 C 280.538 211.916,281.074 212.473,282.540 212.326 C 283.575 212.222,283.800 212.343,283.800 213.000 C 283.800 213.707,283.494 213.814,281.163 213.917 C 277.460 214.081,276.994 213.446,279.114 211.123 C 281.870 208.104,282.120 206.251,279.588 207.606 C 278.300 208.296,277.621 207.482,278.591 206.409 C 279.420 205.494,281.934 205.294,282.720 206.080 M297.382 205.848 C 298.356 206.222,299.200 208.155,299.200 210.011 C 299.200 214.522,293.177 215.572,292.017 211.263 C 290.975 207.394,293.850 204.493,297.382 205.848 M265.600 207.492 C 264.365 207.962,263.903 210.543,264.880 211.520 C 265.664 212.304,267.518 212.101,268.013 211.177 C 268.770 209.762,267.557 206.924,266.326 207.232 C 266.257 207.249,265.930 207.366,265.600 207.492 M294.229 207.829 C 293.486 208.571,293.395 210.835,294.080 211.520 C 294.864 212.304,296.718 212.101,297.213 211.177 C 298.425 208.911,295.937 206.120,294.229 207.829 M178.038 257.414 C 182.297 258.916,183.275 263.172,180.121 266.477 L 179.094 267.555 180.747 270.938 C 182.808 275.157,182.806 275.200,180.590 275.200 C 178.993 275.200,178.732 275.073,178.370 274.122 C 175.558 266.724,173.706 265.724,173.516 271.500 L 173.400 275.000 171.800 275.000 L 170.200 275.000 170.092 266.451 C 170.016 260.482,170.122 257.735,170.441 257.351 C 171.071 256.591,175.818 256.630,178.038 257.414 M240.854 257.263 C 242.348 257.711,242.400 257.787,242.400 259.506 C 242.400 260.865,242.268 261.235,241.842 261.071 C 235.432 258.612,231.100 262.085,232.782 268.335 C 233.652 271.563,237.912 273.100,241.232 271.384 C 242.961 270.489,243.722 271.374,242.952 273.382 C 242.271 275.156,235.986 275.930,233.270 274.575 C 229.620 272.754,227.855 267.495,229.300 262.743 C 230.613 258.424,236.078 255.832,240.854 257.263 M259.431 257.293 C 266.005 259.051,268.061 267.316,263.220 272.530 C 259.858 276.152,253.406 276.252,250.180 272.731 C 243.865 265.839,250.428 254.885,259.431 257.293 M145.200 258.783 L 145.200 260.366 142.100 260.483 L 139.000 260.600 138.877 262.300 L 138.754 264.000 141.353 264.000 C 144.186 264.000,144.254 264.039,144.460 265.800 L 144.600 267.000 141.800 267.200 L 139.000 267.400 138.800 271.200 L 138.600 275.000 136.900 275.123 L 135.200 275.246 135.200 266.490 C 135.200 261.674,135.320 257.613,135.467 257.467 C 135.613 257.320,137.863 257.200,140.467 257.200 L 145.200 257.200 145.200 258.783 M158.707 257.700 C 158.930 257.975,159.386 259.010,159.719 260.000 C 160.318 261.782,161.374 264.654,161.997 266.200 C 162.174 266.640,162.536 267.630,162.800 268.400 C 163.301 269.859,163.596 270.644,164.350 272.519 C 165.238 274.726,164.990 275.260,163.141 275.123 C 161.431 274.996,161.243 274.817,160.378 272.484 L 159.890 271.168 156.859 271.284 L 153.829 271.400 153.214 273.298 C 152.609 275.167,152.574 275.196,150.900 275.198 C 149.965 275.199,149.200 275.064,149.200 274.897 C 149.200 274.404,149.849 272.414,151.190 268.800 C 151.883 266.930,152.908 264.050,153.468 262.400 C 155.202 257.285,157.037 255.639,158.707 257.700 M194.065 260.800 C 195.239 262.780,196.370 264.343,196.579 264.273 C 196.941 264.153,198.539 261.666,199.068 260.400 C 199.866 258.490,201.278 257.200,202.571 257.200 C 204.761 257.200,204.827 257.492,204.708 266.651 L 204.600 275.000 202.912 275.122 L 201.224 275.245 201.112 269.955 C 200.987 264.062,200.679 263.466,199.220 266.300 C 197.981 268.707,196.833 270.400,196.440 270.400 C 196.273 270.400,195.885 269.905,195.580 269.300 C 194.612 267.382,192.776 264.800,192.381 264.800 C 192.159 264.800,192.000 266.975,192.000 270.000 L 192.000 275.200 190.400 275.200 L 188.800 275.200 188.800 266.467 C 188.800 256.960,188.752 257.200,190.632 257.200 C 191.842 257.200,192.075 257.444,194.065 260.800 M219.168 257.761 C 219.424 258.070,219.790 258.835,219.981 259.461 C 220.172 260.088,220.901 262.130,221.600 264.000 C 222.299 265.870,223.019 267.850,223.199 268.400 C 223.380 268.950,223.974 270.605,224.520 272.077 C 225.649 275.123,225.624 275.200,223.527 275.200 C 221.955 275.200,221.508 274.687,220.635 271.883 C 220.442 271.261,220.003 271.182,217.318 271.283 L 214.223 271.400 213.601 273.200 C 213.004 274.926,212.907 275.005,211.238 275.126 C 209.153 275.276,209.138 275.565,211.581 268.800 C 212.494 266.270,213.508 263.390,213.834 262.400 C 214.159 261.410,214.600 260.287,214.813 259.905 C 215.026 259.523,215.200 258.974,215.200 258.685 C 215.200 257.285,218.194 256.588,219.168 257.761 M173.682 262.700 C 173.816 265.768,174.648 266.320,177.173 265.014 C 179.909 263.599,178.415 260.000,175.093 260.000 L 173.563 260.000 173.682 262.700 M254.521 260.625 C 250.690 262.302,250.215 269.014,253.763 271.339 C 255.263 272.322,258.807 272.224,260.156 271.163 C 265.411 267.029,260.571 257.977,254.521 260.625 M216.289 264.720 C 215.326 267.963,215.338 268.000,217.400 268.000 C 219.486 268.000,219.525 267.877,218.400 264.800 C 217.960 263.596,217.600 262.564,217.600 262.506 C 217.600 261.617,216.818 262.937,216.289 264.720 M156.527 263.300 C 156.018 264.094,155.213 266.533,155.206 267.300 C 155.201 267.864,155.550 268.000,157.000 268.000 C 159.069 268.000,159.011 268.150,158.111 265.120 C 157.411 262.762,157.100 262.405,156.527 263.300 M107.180 294.100 C 108.228 297.420,108.821 298.800,109.200 298.800 C 109.847 298.800,111.294 293.323,110.861 292.514 C 110.623 292.069,110.540 291.593,110.677 291.456 C 111.039 291.094,112.000 291.995,112.000 292.696 C 112.000 293.217,113.580 298.330,113.873 298.757 C 114.200 299.234,115.120 297.763,115.603 295.989 C 115.908 294.867,116.303 293.860,116.479 293.751 C 116.656 293.642,116.800 293.113,116.800 292.576 C 116.800 291.984,117.031 291.600,117.387 291.600 C 117.971 291.600,117.939 291.982,117.204 293.800 C 117.026 294.240,116.664 295.230,116.400 296.000 C 114.708 300.927,114.026 301.682,113.222 299.515 C 112.953 298.792,112.468 297.586,112.143 296.836 L 111.552 295.472 110.976 296.582 C 110.659 297.192,110.400 297.932,110.400 298.227 C 110.400 299.924,108.604 301.647,108.240 300.300 C 108.165 300.025,107.541 298.061,106.852 295.935 C 105.525 291.839,105.401 291.200,105.932 291.200 C 106.115 291.200,106.677 292.505,107.180 294.100 M130.400 291.600 C 130.400 291.820,129.716 292.000,128.880 292.000 C 125.914 292.000,125.144 294.990,127.993 295.445 C 128.869 295.585,129.493 295.850,129.380 296.032 C 129.267 296.215,128.924 296.269,128.618 296.152 C 127.411 295.688,126.348 296.768,126.477 298.326 C 126.598 299.781,126.625 299.802,128.500 299.922 C 131.241 300.098,130.841 300.800,128.000 300.800 L 125.600 300.800 125.600 296.000 L 125.600 291.200 128.000 291.200 C 129.333 291.200,130.400 291.378,130.400 291.600 M142.311 291.823 C 143.288 292.507,143.516 294.324,142.725 295.115 C 142.359 295.481,142.450 295.802,143.125 296.520 C 145.056 298.576,143.314 300.933,140.022 300.719 L 138.200 300.600 138.090 296.414 C 138.030 294.112,138.069 291.997,138.178 291.714 C 138.454 290.994,141.232 291.067,142.311 291.823 M163.208 291.300 C 163.213 291.355,163.911 293.428,164.759 295.907 C 166.093 299.803,166.387 303.070,165.097 299.650 C 164.384 297.762,160.000 297.360,160.000 299.183 C 160.000 299.578,159.700 300.149,159.334 300.451 C 158.377 301.239,159.047 298.711,161.203 293.400 C 161.381 292.960,161.628 292.285,161.751 291.900 C 161.925 291.355,163.171 290.842,163.208 291.300 M178.214 291.846 C 180.357 293.250,179.344 296.315,176.411 297.307 C 174.811 297.848,174.642 298.028,174.622 299.217 C 174.610 299.939,174.375 300.605,174.100 300.698 C 173.560 300.880,173.336 291.997,173.867 291.467 C 174.378 290.955,177.235 291.205,178.214 291.846 M191.746 292.029 C 193.878 293.706,192.540 296.837,189.445 297.418 C 188.079 297.674,188.000 297.774,188.000 299.245 C 188.000 300.100,187.820 300.800,187.600 300.800 C 187.356 300.800,187.200 298.933,187.200 296.000 L 187.200 291.200 188.946 291.200 C 190.107 291.200,191.045 291.478,191.746 292.029 M201.200 295.191 C 201.200 299.742,201.310 300.000,203.243 300.000 C 204.099 300.000,204.800 300.189,204.800 300.420 C 204.800 300.678,203.916 300.794,202.500 300.720 L 200.200 300.600 200.086 296.426 C 199.967 292.072,200.121 290.980,200.797 291.398 C 201.019 291.535,201.200 293.242,201.200 295.191 M213.107 296.095 C 213.032 299.211,212.851 300.583,212.500 300.700 C 211.967 300.878,211.732 292.001,212.256 291.478 C 212.966 290.768,213.205 292.064,213.107 296.095 M226.808 291.810 C 227.422 292.549,226.981 293.141,226.313 292.473 C 224.364 290.524,221.158 293.716,221.773 296.995 C 222.227 299.417,224.921 300.919,226.313 299.527 C 226.981 298.859,227.422 299.451,226.808 300.190 C 224.808 302.600,220.800 299.845,220.800 296.062 C 220.800 292.258,224.820 289.414,226.808 291.810 M238.558 292.500 C 239.630 294.842,241.218 300.047,240.979 300.434 C 240.624 301.008,240.000 300.456,240.000 299.568 C 240.000 297.526,235.644 297.562,234.796 299.610 C 234.525 300.264,234.145 300.800,233.951 300.800 C 233.513 300.800,233.492 299.889,233.918 299.380 C 234.093 299.171,234.465 298.280,234.745 297.400 C 235.818 294.020,237.105 291.200,237.575 291.200 C 237.788 291.200,238.230 291.785,238.558 292.500 M254.184 291.574 C 254.311 291.780,253.827 292.005,253.108 292.074 L 251.800 292.200 251.600 296.400 C 251.336 301.949,250.634 301.886,250.486 296.300 L 250.373 292.000 249.186 292.000 C 248.534 292.000,248.000 291.820,248.000 291.600 C 248.000 291.090,253.870 291.066,254.184 291.574 M262.707 296.095 C 262.632 299.211,262.451 300.583,262.100 300.700 C 261.567 300.878,261.332 292.001,261.856 291.478 C 262.566 290.768,262.805 292.064,262.707 296.095 M276.526 291.665 C 278.844 292.900,279.260 297.602,277.231 299.631 C 274.518 302.344,270.400 300.280,270.400 296.206 C 270.400 292.511,273.625 290.120,276.526 291.665 M289.256 294.300 C 292.490 299.121,292.800 299.140,292.800 294.520 C 292.800 292.120,292.929 291.169,293.214 291.454 C 293.802 292.042,293.544 300.487,292.932 300.690 C 292.675 300.775,291.415 299.216,290.132 297.224 C 287.258 292.763,287.200 292.762,287.200 297.200 C 287.200 299.333,287.037 300.800,286.800 300.800 C 286.556 300.800,286.400 298.933,286.400 296.000 C 286.400 290.302,286.524 290.228,289.256 294.300 M139.467 292.267 C 138.937 292.796,139.193 295.223,139.803 295.457 C 140.536 295.738,142.400 294.587,142.400 293.853 C 142.400 292.699,140.215 291.518,139.467 292.267 M175.067 292.267 C 174.493 292.840,174.786 296.309,175.429 296.556 C 176.565 296.992,178.400 295.430,178.400 294.026 C 178.400 292.823,175.854 291.479,175.067 292.267 M188.267 292.267 C 187.811 292.722,187.974 295.814,188.480 296.320 C 189.489 297.329,191.600 295.927,191.600 294.246 C 191.600 292.694,189.241 291.292,188.267 292.267 M272.562 292.843 C 271.449 294.074,271.480 298.523,272.608 299.376 C 275.685 301.702,278.973 297.414,277.015 293.629 C 276.064 291.790,273.864 291.402,272.562 292.843 M162.080 293.680 C 161.816 293.944,161.600 294.448,161.600 294.800 C 161.600 295.152,161.375 295.668,161.100 295.947 C 160.516 296.539,161.642 297.600,162.853 297.600 C 163.938 297.600,164.121 296.910,163.550 294.978 C 162.988 293.075,162.827 292.933,162.080 293.680 M236.964 293.867 C 236.834 294.270,236.540 294.993,236.311 295.473 C 235.454 297.267,236.927 298.273,238.608 297.043 C 239.190 296.618,239.264 296.358,238.923 295.943 C 238.678 295.644,238.414 294.964,238.338 294.431 C 238.168 293.235,237.285 292.873,236.964 293.867 M139.700 296.287 C 138.530 296.708,139.095 300.000,140.338 300.000 C 141.642 300.000,142.934 298.792,142.735 297.759 C 142.589 297.001,140.513 295.994,139.700 296.287 " stroke="none" fill="#fbfbfb" fill-rule="evenodd"></path><path id="path1" d="M148.816 145.638 C 145.449 146.507,144.333 147.200,146.300 147.200 C 153.629 147.200,165.768 152.198,169.756 156.857 C 171.599 159.010,171.588 159.115,169.197 162.082 C 167.266 164.478,164.400 168.942,164.400 169.554 C 164.400 169.716,164.063 170.559,163.651 171.425 C 162.419 174.015,160.782 179.217,160.135 182.600 C 159.388 186.506,159.828 197.946,160.873 201.800 C 162.512 207.844,165.200 213.963,165.200 211.651 C 165.200 211.104,168.971 205.512,170.090 204.400 C 174.444 200.071,182.869 195.528,189.300 194.040 C 190.345 193.798,191.965 193.421,192.900 193.202 C 195.905 192.498,206.544 192.388,209.528 193.029 C 214.392 194.075,215.097 194.287,218.863 195.832 C 226.604 199.008,233.148 204.554,235.834 210.216 C 236.802 212.256,236.851 212.222,238.601 208.251 C 239.685 205.793,240.299 203.643,241.301 198.800 C 242.135 194.770,241.721 180.769,240.750 180.169 C 240.557 180.050,240.400 179.344,240.400 178.600 C 240.400 177.856,240.220 177.136,240.000 177.000 C 239.780 176.864,239.600 176.401,239.600 175.971 C 239.600 175.541,239.435 174.877,239.234 174.495 C 239.032 174.113,238.563 173.080,238.191 172.200 C 236.618 168.480,235.356 166.169,233.534 163.671 C 231.066 160.285,231.060 160.328,234.516 156.992 C 238.995 152.670,245.447 149.867,253.800 148.613 C 258.799 147.862,258.351 147.313,251.680 146.013 C 242.150 144.156,229.600 150.392,229.600 156.984 C 229.600 157.323,229.330 157.600,229.000 157.600 C 228.661 157.600,228.400 157.242,228.400 156.776 C 228.400 156.323,228.235 156.055,228.034 156.179 C 227.704 156.383,226.403 155.468,224.228 153.504 C 223.062 152.450,216.668 149.277,216.118 149.478 C 215.853 149.575,215.043 149.389,214.318 149.064 C 213.593 148.739,212.460 148.357,211.800 148.215 C 211.140 148.073,209.790 147.767,208.800 147.535 C 207.810 147.304,204.570 147.027,201.600 146.921 C 196.289 146.731,194.391 146.941,189.800 148.227 C 188.700 148.535,187.440 148.757,187.000 148.720 C 185.844 148.624,181.003 151.020,178.137 153.106 C 176.782 154.093,175.543 154.833,175.383 154.750 C 175.223 154.668,174.942 155.005,174.759 155.500 C 174.274 156.809,173.890 156.615,173.084 154.655 C 169.813 146.701,159.520 142.877,148.816 145.638 M189.631 179.569 C 191.196 181.134,191.250 183.404,189.764 185.169 C 187.762 187.549,183.338 186.482,182.573 183.434 C 181.562 179.406,186.670 176.609,189.631 179.569 M217.069 179.082 C 218.677 180.135,219.344 182.081,218.660 183.718 C 217.502 186.488,214.552 187.210,212.442 185.240 C 209.005 182.028,213.148 176.513,217.069 179.082 M117.693 206.400 C 117.693 207.170,117.775 207.485,117.876 207.100 C 117.976 206.715,117.976 206.085,117.876 205.700 C 117.775 205.315,117.693 205.630,117.693 206.400 M214.575 216.500 L 213.400 217.800 214.700 216.625 C 215.415 215.979,216.000 215.394,216.000 215.325 C 216.000 215.016,215.670 215.288,214.575 216.500 " stroke="none" fill="#b56836" fill-rule="evenodd"></path><path id="path2" d="M176.826 132.532 C 174.845 137.742,173.600 153.373,175.052 154.807 C 175.247 155.001,176.451 154.357,177.800 153.338 C 179.120 152.340,181.595 150.869,183.300 150.068 C 186.926 148.364,186.819 148.675,184.833 145.603 C 183.283 143.204,178.760 134.238,178.224 132.500 C 177.865 131.339,177.274 131.352,176.826 132.532 M224.709 134.100 C 224.031 136.064,218.703 146.423,217.613 147.897 C 217.087 148.608,216.734 149.257,216.828 149.338 C 216.923 149.419,218.440 150.229,220.200 151.137 C 221.960 152.045,224.120 153.427,225.000 154.208 C 228.333 157.165,228.416 157.103,228.679 151.466 C 229.121 142.003,226.277 129.562,224.709 134.100 M183.875 179.366 C 180.937 182.089,182.744 186.400,186.823 186.400 C 189.276 186.400,190.800 184.844,190.800 182.339 C 190.800 178.883,186.423 177.004,183.875 179.366 M212.442 179.560 C 209.005 182.772,213.148 188.287,217.069 185.718 C 218.677 184.665,219.344 182.719,218.660 181.082 C 217.502 178.312,214.552 177.590,212.442 179.560 M117.067 203.867 C 116.920 204.013,116.800 206.263,116.800 208.867 L 116.800 213.600 119.400 213.600 C 120.867 213.600,122.000 213.426,122.000 213.200 C 122.000 212.980,121.226 212.800,120.280 212.800 C 118.304 212.800,117.600 212.274,117.600 210.800 C 117.600 209.405,118.290 208.800,119.880 208.800 C 121.811 208.800,121.494 208.067,119.500 207.923 C 117.847 207.803,117.800 207.761,117.800 206.400 L 117.800 205.000 119.900 204.879 C 121.972 204.760,122.601 204.316,121.367 203.843 C 120.516 203.516,117.400 203.533,117.067 203.867 M132.475 203.940 C 129.715 204.717,130.093 207.615,133.157 209.178 C 135.016 210.126,135.461 211.048,134.548 212.058 C 133.789 212.896,132.730 213.005,131.539 212.368 C 130.534 211.830,130.117 212.177,130.792 212.990 C 131.455 213.790,133.769 213.770,135.014 212.954 C 136.834 211.761,136.401 209.816,133.980 208.311 C 131.137 206.544,131.227 205.107,134.200 204.780 C 136.172 204.564,136.184 204.554,135.074 204.080 C 133.851 203.558,133.834 203.558,132.475 203.940 M144.979 203.954 C 144.491 204.443,144.921 204.800,146.000 204.800 L 147.200 204.800 147.200 209.233 C 147.200 215.382,148.149 215.261,148.313 209.092 L 148.427 204.849 149.713 204.724 C 150.421 204.656,150.955 204.420,150.900 204.200 C 150.804 203.815,145.346 203.588,144.979 203.954 M265.236 206.040 C 263.754 206.627,263.227 207.614,263.213 209.830 C 263.191 213.348,266.207 214.884,268.545 212.545 C 271.234 209.857,268.613 204.703,265.236 206.040 M294.182 206.162 C 290.833 207.621,291.815 213.549,295.411 213.587 C 299.015 213.625,300.120 207.917,296.837 206.219 C 295.434 205.494,295.703 205.500,294.182 206.162 M250.300 206.276 C 249.118 206.585,249.503 207.319,250.719 207.076 C 253.429 206.534,253.291 208.021,250.318 211.399 C 249.497 212.331,248.940 213.207,249.080 213.346 C 249.501 213.768,254.400 213.633,254.400 213.200 C 254.400 212.980,253.680 212.800,252.800 212.800 C 251.467 212.800,251.200 212.667,251.200 212.000 C 251.200 211.560,251.335 211.199,251.500 211.197 C 252.084 211.192,253.600 208.536,253.600 207.518 C 253.600 206.155,252.437 205.717,250.300 206.276 M279.274 206.422 C 278.765 206.626,278.461 206.975,278.599 207.198 C 278.765 207.468,279.117 207.459,279.656 207.170 C 281.992 205.920,282.227 208.325,280.011 210.814 C 279.138 211.797,278.418 212.825,278.411 213.100 C 278.397 213.716,283.424 213.809,283.800 213.200 C 283.950 212.957,283.360 212.800,282.290 212.800 C 279.959 212.800,279.815 212.552,281.153 210.844 C 283.251 208.166,283.467 207.524,282.571 206.629 C 281.875 205.932,280.682 205.857,279.274 206.422 M297.499 208.493 C 298.248 210.013,297.732 211.848,296.400 212.400 C 294.213 213.306,292.392 210.934,293.411 208.508 C 294.237 206.543,296.535 206.535,297.499 208.493 M268.365 208.135 C 269.652 210.539,267.439 213.585,265.282 212.379 C 264.067 211.700,263.535 208.842,264.425 207.770 C 265.225 206.806,267.780 207.042,268.365 208.135 M183.443 212.633 C 182.550 214.959,183.428 216.915,185.765 217.808 C 188.284 218.770,188.793 218.237,187.056 216.454 C 186.277 215.654,185.358 214.325,185.014 213.500 C 184.346 211.895,183.834 211.613,183.443 212.633 M216.970 213.409 C 216.647 214.184,215.749 215.519,214.975 216.375 C 213.366 218.156,213.637 218.622,215.836 217.861 C 218.045 217.096,218.957 215.710,218.608 213.647 C 218.267 211.629,217.746 211.553,216.970 213.409 " stroke="none" fill="#414140" fill-rule="evenodd"></path><path id="path3" d="M151.813 144.349 C 151.160 144.489,152.816 144.603,155.492 144.602 C 158.169 144.601,160.054 144.478,159.680 144.328 C 158.836 143.991,153.418 144.005,151.813 144.349 M148.200 145.200 C 147.696 145.417,147.622 145.544,148.000 145.544 C 148.330 145.544,148.960 145.389,149.400 145.200 C 149.904 144.983,149.978 144.856,149.600 144.856 C 149.270 144.856,148.640 145.011,148.200 145.200 M245.300 145.494 C 246.345 145.576,248.055 145.576,249.100 145.494 C 250.145 145.412,249.290 145.344,247.200 145.344 C 245.110 145.344,244.255 145.412,245.300 145.494 M197.400 145.986 C 196.428 146.151,197.839 146.260,201.000 146.264 C 204.684 146.269,205.675 146.182,204.400 145.965 C 202.264 145.602,199.609 145.610,197.400 145.986 M253.000 146.000 C 253.440 146.189,254.070 146.344,254.400 146.344 C 254.778 146.344,254.704 146.217,254.200 146.000 C 253.760 145.811,253.130 145.656,252.800 145.656 C 252.422 145.656,252.496 145.783,253.000 146.000 M143.680 146.880 C 143.099 147.461,143.041 149.855,143.600 150.200 C 143.820 150.336,144.000 150.853,144.000 151.348 C 144.000 152.150,144.932 154.533,146.015 156.500 C 147.147 158.558,147.418 159.018,147.602 159.200 C 147.714 159.310,148.278 160.030,148.857 160.800 C 151.921 164.876,155.868 167.565,161.200 169.211 C 162.190 169.516,163.132 169.954,163.294 170.183 C 163.464 170.424,163.590 170.288,163.594 169.861 C 163.601 169.019,167.148 163.459,169.332 160.867 C 171.069 158.805,171.009 158.602,167.773 155.645 C 163.412 151.659,155.572 148.702,146.878 147.764 C 144.984 147.559,144.408 147.356,144.565 146.946 C 144.824 146.272,144.325 146.235,143.680 146.880 M191.800 146.800 L 191.000 147.144 191.800 147.132 C 192.240 147.126,193.050 146.976,193.600 146.800 L 194.600 146.480 193.600 146.468 C 193.050 146.462,192.240 146.611,191.800 146.800 M207.600 146.800 C 208.150 146.976,208.960 147.126,209.400 147.132 L 210.200 147.144 209.400 146.800 C 208.960 146.611,208.150 146.462,207.600 146.468 L 206.600 146.480 207.600 146.800 M188.800 147.600 C 188.267 147.945,188.267 147.988,188.800 147.988 C 189.130 147.988,189.670 147.813,190.000 147.600 C 190.533 147.255,190.533 147.212,190.000 147.212 C 189.670 147.212,189.130 147.387,188.800 147.600 M211.200 147.600 C 211.530 147.813,212.160 147.978,212.600 147.966 L 213.400 147.944 212.600 147.600 C 211.404 147.086,210.405 147.086,211.200 147.600 M258.320 147.680 C 259.189 148.549,258.827 148.800,256.700 148.800 C 248.654 148.802,236.813 153.877,233.191 158.876 L 232.010 160.506 232.815 161.553 C 234.788 164.122,235.998 165.985,237.131 168.196 L 238.348 170.574 240.074 170.470 C 242.451 170.327,246.971 168.592,248.329 167.302 C 248.619 167.026,248.991 166.800,249.155 166.800 C 250.482 166.800,255.848 160.287,257.559 156.600 C 258.070 155.500,258.648 154.287,258.844 153.905 C 259.040 153.523,259.200 152.769,259.200 152.229 C 259.200 151.689,259.380 151.136,259.600 151.000 C 260.265 150.589,260.056 148.331,259.300 147.757 C 258.424 147.092,257.673 147.033,258.320 147.680 M232.800 150.600 C 231.828 151.590,231.123 152.400,231.233 152.400 C 231.343 152.400,232.228 151.590,233.200 150.600 C 234.172 149.610,234.877 148.800,234.767 148.800 C 234.657 148.800,233.772 149.610,232.800 150.600 M239.212 173.200 C 239.212 173.530,239.387 174.070,239.600 174.400 C 239.945 174.933,239.988 174.933,239.988 174.400 C 239.988 174.070,239.813 173.530,239.600 173.200 C 239.255 172.667,239.212 172.667,239.212 173.200 M161.000 175.600 C 160.850 176.073,160.817 176.550,160.927 176.660 C 161.037 176.770,161.250 176.473,161.400 176.000 C 161.550 175.527,161.583 175.050,161.473 174.940 C 161.363 174.830,161.150 175.127,161.000 175.600 M240.012 175.600 C 240.012 175.930,240.187 176.470,240.400 176.800 C 240.745 177.333,240.788 177.333,240.788 176.800 C 240.788 176.470,240.613 175.930,240.400 175.600 C 240.055 175.067,240.012 175.067,240.012 175.600 M160.273 177.753 C 160.123 178.145,160.011 178.766,160.025 179.133 C 160.042 179.575,160.181 179.474,160.437 178.834 C 160.649 178.303,160.761 177.682,160.685 177.454 C 160.609 177.227,160.424 177.361,160.273 177.753 M240.856 178.200 C 240.856 178.640,241.011 179.360,241.200 179.800 L 241.544 180.600 241.544 179.800 C 241.544 179.360,241.389 178.640,241.200 178.200 L 240.856 177.400 240.856 178.200 M159.476 181.210 C 159.330 181.755,159.227 182.650,159.246 183.200 C 159.271 183.918,159.384 183.757,159.649 182.627 C 160.055 180.895,159.900 179.625,159.476 181.210 M241.687 181.600 C 241.691 182.150,241.832 183.140,242.000 183.800 L 242.305 185.000 242.313 183.800 C 242.317 183.140,242.176 182.150,242.000 181.600 L 241.680 180.600 241.687 181.600 M158.955 190.200 C 158.956 193.060,159.020 194.178,159.097 192.683 C 159.174 191.189,159.174 188.849,159.096 187.483 C 159.018 186.118,158.955 187.340,158.955 190.200 M242.518 190.800 C 242.518 194.173,242.583 194.787,242.764 193.100 C 242.899 191.835,242.899 189.765,242.764 188.500 C 242.583 186.813,242.518 187.427,242.518 190.800 M195.600 193.388 C 189.677 194.222,188.029 194.635,183.600 196.400 C 175.857 199.485,169.541 204.683,166.766 210.257 C 166.015 211.766,165.359 213.071,165.310 213.157 C 165.260 213.243,164.945 213.086,164.610 212.808 C 163.879 212.201,163.823 212.527,164.478 213.576 C 164.848 214.169,164.848 214.577,164.478 215.389 C 163.658 217.189,163.873 224.277,164.837 227.234 C 166.767 233.156,171.101 238.634,176.217 241.621 C 177.517 242.379,179.215 243.371,179.990 243.826 C 187.191 248.042,199.442 249.915,208.600 248.200 C 214.839 247.031,214.063 247.241,217.206 245.867 C 217.979 245.528,219.121 245.058,219.744 244.821 C 226.760 242.154,233.808 235.315,236.463 228.600 C 237.858 225.071,238.285 217.612,237.239 215.028 C 236.818 213.986,236.904 213.596,238.021 211.500 C 238.712 210.204,239.192 209.059,239.089 208.955 C 238.985 208.852,238.473 209.622,237.950 210.666 C 236.702 213.159,236.382 213.170,235.241 210.758 C 230.503 200.744,218.046 193.946,202.800 193.053 C 200.920 192.943,197.701 193.093,195.600 193.388 M241.818 198.618 C 241.665 199.639,241.630 200.563,241.740 200.673 C 241.850 200.783,242.065 200.039,242.218 199.018 C 242.371 197.998,242.406 197.073,242.296 196.963 C 242.186 196.853,241.971 197.598,241.818 198.618 M159.280 198.000 C 159.280 198.550,159.424 199.450,159.600 200.000 L 159.920 201.000 159.920 200.000 C 159.920 199.450,159.776 198.550,159.600 198.000 L 159.280 197.000 159.280 198.000 M241.000 202.400 C 240.848 203.091,240.814 203.747,240.924 203.857 C 241.034 203.967,241.248 203.491,241.400 202.800 C 241.552 202.109,241.586 201.453,241.476 201.343 C 241.366 201.233,241.152 201.709,241.000 202.400 M160.056 202.000 C 160.056 202.330,160.211 202.960,160.400 203.400 C 160.617 203.904,160.744 203.978,160.744 203.600 C 160.744 203.270,160.589 202.640,160.400 202.200 C 160.183 201.696,160.056 201.622,160.056 202.000 M160.812 204.800 C 160.812 205.130,160.987 205.670,161.200 206.000 C 161.545 206.533,161.588 206.533,161.588 206.000 C 161.588 205.670,161.413 205.130,161.200 204.800 C 160.855 204.267,160.812 204.267,160.812 204.800 M118.156 205.371 C 118.035 205.685,118.016 206.360,118.114 206.871 C 118.251 207.591,118.303 207.513,118.346 206.523 C 118.397 205.322,118.501 205.237,120.100 205.093 L 121.800 204.940 120.087 204.870 C 118.923 204.822,118.305 204.983,118.156 205.371 M145.886 205.061 C 146.715 205.240,146.781 205.503,146.907 209.126 L 147.042 213.000 147.021 209.000 C 147.000 205.024,146.994 205.000,146.000 204.934 C 145.146 204.878,145.129 204.897,145.886 205.061 M161.628 206.892 C 161.582 207.365,162.886 210.448,163.058 210.275 C 163.145 210.188,162.866 209.325,162.437 208.358 C 162.008 207.391,161.644 206.731,161.628 206.892 M119.300 207.876 C 119.685 207.976,120.315 207.976,120.700 207.876 C 121.085 207.775,120.770 207.693,120.000 207.693 C 119.230 207.693,118.915 207.775,119.300 207.876 M269.714 209.800 C 269.717 210.900,269.795 211.303,269.887 210.695 C 269.979 210.086,269.977 209.186,269.882 208.695 C 269.787 208.203,269.711 208.700,269.714 209.800 M118.156 209.771 C 117.523 211.420,118.138 212.199,120.103 212.237 L 122.005 212.274 120.203 212.115 C 118.372 211.954,117.439 210.055,118.900 209.465 C 119.292 209.307,119.289 209.256,118.887 209.232 C 118.606 209.214,118.276 209.457,118.156 209.771 M134.012 210.268 C 134.469 211.002,134.463 211.248,133.976 211.868 C 133.448 212.539,133.459 212.554,134.100 212.051 C 134.979 211.362,134.991 210.655,134.136 209.949 C 133.530 209.449,133.519 209.477,134.012 210.268 M249.775 211.300 L 248.600 212.600 249.900 211.425 C 250.615 210.779,251.200 210.194,251.200 210.125 C 251.200 209.816,250.870 210.088,249.775 211.300 M278.975 211.300 L 277.800 212.600 279.100 211.425 C 279.815 210.779,280.400 210.194,280.400 210.125 C 280.400 209.816,280.070 210.088,278.975 211.300 M185.351 212.926 C 185.713 213.876,186.638 215.261,187.405 216.005 C 189.472 218.008,189.312 218.962,186.954 218.696 C 183.373 218.292,181.533 215.508,182.922 212.595 C 183.809 210.735,184.552 210.836,185.351 212.926 M218.827 212.050 C 220.592 215.349,217.405 219.541,213.817 218.640 C 212.458 218.299,212.534 217.806,214.180 216.280 C 214.939 215.576,215.923 214.145,216.366 213.100 C 217.234 211.052,218.096 210.684,218.827 212.050 M116.759 213.721 C 116.936 213.897,118.233 213.985,119.641 213.916 L 122.200 213.791 119.318 213.595 C 117.733 213.488,116.581 213.544,116.759 213.721 M131.900 213.882 C 132.395 213.978,133.205 213.978,133.700 213.882 C 134.195 213.787,133.790 213.709,132.800 213.709 C 131.810 213.709,131.405 213.787,131.900 213.882 M250.291 213.889 C 251.001 213.977,252.261 213.979,253.091 213.892 C 253.921 213.805,253.340 213.733,251.800 213.731 C 250.260 213.729,249.581 213.800,250.291 213.889 M279.491 213.889 C 280.201 213.977,281.461 213.979,282.291 213.892 C 283.121 213.805,282.540 213.733,281.000 213.731 C 279.460 213.729,278.781 213.800,279.491 213.889 M170.441 257.351 C 170.122 257.735,170.016 260.482,170.092 266.451 L 170.200 275.000 171.800 275.000 L 173.400 275.000 173.516 271.500 C 173.706 265.724,175.558 266.724,178.370 274.122 C 178.732 275.073,178.993 275.200,180.590 275.200 C 182.806 275.200,182.808 275.157,180.747 270.938 L 179.094 267.555 180.121 266.477 C 183.275 263.172,182.297 258.916,178.038 257.414 C 175.818 256.630,171.071 256.591,170.441 257.351 M235.400 257.261 C 230.850 258.769,228.800 261.560,228.800 266.247 C 228.800 269.938,230.564 273.225,233.270 274.575 C 235.986 275.930,242.271 275.156,242.952 273.382 C 243.722 271.374,242.961 270.489,241.232 271.384 C 237.912 273.100,233.652 271.563,232.782 268.335 C 231.100 262.085,235.432 258.612,241.842 261.071 C 242.268 261.235,242.400 260.865,242.400 259.506 C 242.400 257.081,239.118 256.029,235.400 257.261 M254.372 257.342 C 247.721 259.475,245.501 267.625,250.180 272.731 C 253.406 276.252,259.858 276.152,263.220 272.530 C 269.716 265.533,263.280 254.485,254.372 257.342 M135.467 257.467 C 135.320 257.613,135.200 261.674,135.200 266.490 L 135.200 275.246 136.900 275.123 L 138.600 275.000 138.800 271.200 L 139.000 267.400 141.800 267.200 L 144.600 267.000 144.460 265.800 C 144.254 264.039,144.186 264.000,141.353 264.000 L 138.754 264.000 138.877 262.300 L 139.000 260.600 142.100 260.483 L 145.200 260.366 145.200 258.783 L 145.200 257.200 140.467 257.200 C 137.863 257.200,135.613 257.320,135.467 257.467 M155.053 258.300 C 154.741 258.905,154.027 260.750,153.468 262.400 C 152.908 264.050,151.883 266.930,151.190 268.800 C 149.849 272.414,149.200 274.404,149.200 274.897 C 149.200 275.064,149.965 275.199,150.900 275.198 C 152.574 275.196,152.609 275.167,153.214 273.298 L 153.829 271.400 156.859 271.284 L 159.890 271.168 160.378 272.484 C 161.243 274.817,161.431 274.996,163.141 275.123 C 164.990 275.260,165.238 274.726,164.350 272.519 C 163.596 270.644,163.301 269.859,162.800 268.400 C 162.536 267.630,162.174 266.640,161.997 266.200 C 161.374 264.654,160.318 261.782,159.719 260.000 C 158.656 256.841,156.257 255.967,155.053 258.300 M189.067 257.467 C 188.920 257.613,188.800 261.663,188.800 266.467 L 188.800 275.200 190.400 275.200 L 192.000 275.200 192.000 270.000 C 192.000 266.975,192.159 264.800,192.381 264.800 C 192.776 264.800,194.612 267.382,195.580 269.300 C 196.450 271.023,197.038 270.539,199.220 266.300 C 200.679 263.466,200.987 264.062,201.112 269.955 L 201.224 275.245 202.912 275.122 L 204.600 275.000 204.708 266.651 C 204.827 257.492,204.761 257.200,202.571 257.200 C 201.278 257.200,199.866 258.490,199.068 260.400 C 198.539 261.666,196.941 264.153,196.579 264.273 C 196.370 264.343,195.239 262.780,194.065 260.800 C 191.943 257.221,190.365 256.169,189.067 257.467 M215.680 257.680 C 215.416 257.944,215.200 258.396,215.200 258.685 C 215.200 258.974,215.026 259.523,214.813 259.905 C 214.600 260.287,214.159 261.410,213.834 262.400 C 213.508 263.390,212.494 266.270,211.581 268.800 C 209.138 275.565,209.153 275.276,211.238 275.126 C 212.907 275.005,213.004 274.926,213.601 273.200 L 214.223 271.400 217.318 271.283 C 220.003 271.182,220.442 271.261,220.635 271.883 C 221.508 274.687,221.955 275.200,223.527 275.200 C 225.624 275.200,225.649 275.123,224.520 272.077 C 223.974 270.605,223.380 268.950,223.199 268.400 C 223.019 267.850,222.299 265.870,221.600 264.000 C 220.901 262.130,220.172 260.088,219.981 259.461 C 219.321 257.298,217.017 256.343,215.680 257.680 M177.511 260.623 C 179.838 262.252,177.890 265.872,174.873 265.524 C 173.841 265.405,173.796 265.297,173.682 262.700 L 173.563 260.000 175.093 260.000 C 175.934 260.000,177.022 260.280,177.511 260.623 M259.172 260.719 C 261.813 262.029,263.064 265.914,261.810 268.914 C 260.061 273.101,254.065 273.248,251.977 269.155 C 249.349 264.003,254.237 258.271,259.172 260.719 M217.600 262.506 C 217.600 262.564,217.960 263.596,218.400 264.800 C 219.525 267.877,219.486 268.000,217.400 268.000 C 215.338 268.000,215.326 267.963,216.289 264.720 C 216.818 262.937,217.600 261.617,217.600 262.506 M158.111 265.120 C 159.011 268.150,159.069 268.000,157.000 268.000 C 154.981 268.000,154.831 267.674,155.709 265.200 C 156.806 262.111,157.214 262.097,158.111 265.120 M105.600 291.635 C 105.600 291.874,106.164 293.809,106.852 295.935 C 107.541 298.061,108.165 300.025,108.240 300.300 C 108.604 301.647,110.400 299.924,110.400 298.227 C 110.400 297.932,110.659 297.192,110.976 296.582 L 111.552 295.472 112.143 296.836 C 112.468 297.586,112.953 298.792,113.222 299.515 C 114.026 301.682,114.708 300.927,116.400 296.000 C 116.664 295.230,117.026 294.240,117.204 293.800 C 117.939 291.982,117.971 291.600,117.387 291.600 C 117.031 291.600,116.800 291.984,116.800 292.576 C 116.800 293.113,116.656 293.642,116.479 293.751 C 116.303 293.860,115.908 294.867,115.603 295.989 C 115.120 297.763,114.200 299.234,113.873 298.757 C 113.580 298.330,112.000 293.217,112.000 292.696 C 112.000 291.995,111.039 291.094,110.677 291.456 C 110.540 291.593,110.623 292.069,110.861 292.514 C 111.294 293.323,109.847 298.800,109.200 298.800 C 108.821 298.800,108.228 297.420,107.180 294.100 C 106.377 291.556,105.600 290.343,105.600 291.635 M125.600 296.000 L 125.600 300.800 128.000 300.800 C 130.841 300.800,131.241 300.098,128.500 299.922 C 126.625 299.802,126.598 299.781,126.477 298.326 C 126.348 296.768,127.411 295.688,128.618 296.152 C 128.924 296.269,129.281 296.193,129.411 295.983 C 129.541 295.772,129.322 295.598,128.924 295.595 C 128.526 295.592,127.811 295.485,127.336 295.357 C 126.714 295.190,126.417 295.332,126.273 295.863 C 126.163 296.268,126.171 295.790,126.291 294.800 C 126.576 292.445,126.983 292.000,128.849 292.000 C 129.702 292.000,130.400 291.820,130.400 291.600 C 130.400 291.378,129.333 291.200,128.000 291.200 L 125.600 291.200 125.600 296.000 M138.178 291.714 C 138.069 291.997,138.030 294.112,138.090 296.414 L 138.200 300.600 140.022 300.719 C 143.314 300.933,145.056 298.576,143.125 296.520 C 142.450 295.802,142.359 295.481,142.725 295.115 C 143.516 294.324,143.288 292.507,142.311 291.823 C 141.232 291.067,138.454 290.994,138.178 291.714 M161.751 291.900 C 161.628 292.285,161.381 292.960,161.203 293.400 C 159.047 298.711,158.377 301.239,159.334 300.451 C 159.700 300.149,160.000 299.578,160.000 299.183 C 160.000 297.360,164.384 297.762,165.097 299.650 C 166.387 303.070,166.093 299.803,164.759 295.907 C 163.911 293.428,163.213 291.355,163.208 291.300 C 163.171 290.842,161.925 291.355,161.751 291.900 M173.867 291.467 C 173.336 291.997,173.560 300.880,174.100 300.698 C 174.375 300.605,174.610 299.939,174.622 299.217 C 174.642 298.028,174.811 297.848,176.411 297.307 C 180.702 295.857,180.145 291.200,175.681 291.200 C 174.830 291.200,174.013 291.320,173.867 291.467 M187.200 296.000 C 187.200 299.295,187.341 300.800,187.651 300.800 C 187.952 300.800,188.037 300.124,187.906 298.766 C 187.799 297.648,187.852 296.960,188.024 297.239 C 188.274 297.643,188.665 297.647,189.954 297.261 C 194.289 295.962,193.497 291.200,188.946 291.200 L 187.200 291.200 187.200 296.000 M200.183 291.700 C 200.067 292.003,200.023 294.130,200.086 296.426 L 200.200 300.600 202.500 300.720 C 203.916 300.794,204.800 300.678,204.800 300.420 C 204.800 300.189,204.099 300.000,203.243 300.000 C 201.310 300.000,201.200 299.742,201.200 295.191 C 201.200 291.965,200.717 290.308,200.183 291.700 M212.256 291.478 C 211.732 292.001,211.967 300.878,212.500 300.700 C 212.851 300.583,213.032 299.211,213.107 296.095 C 213.205 292.064,212.966 290.768,212.256 291.478 M222.031 292.431 C 220.245 294.217,220.214 297.875,221.969 299.631 C 223.307 300.968,225.912 301.270,226.808 300.190 C 227.422 299.451,226.981 298.859,226.313 299.527 C 224.921 300.919,222.227 299.417,221.773 296.995 C 221.158 293.716,224.364 290.524,226.313 292.473 C 226.981 293.141,227.422 292.549,226.808 291.810 C 225.901 290.716,223.423 291.038,222.031 292.431 M236.538 292.700 C 235.580 294.915,235.306 295.632,234.745 297.400 C 234.465 298.280,234.093 299.171,233.918 299.380 C 233.492 299.889,233.513 300.800,233.951 300.800 C 234.145 300.800,234.525 300.264,234.796 299.610 C 235.644 297.562,240.000 297.526,240.000 299.568 C 240.000 300.456,240.624 301.008,240.979 300.434 C 241.218 300.047,239.630 294.842,238.558 292.500 C 237.786 290.815,237.334 290.860,236.538 292.700 M248.000 291.653 C 248.000 291.953,248.563 292.030,249.679 291.880 C 250.603 291.756,251.136 291.792,250.864 291.960 C 250.255 292.337,250.383 300.350,251.000 300.502 C 251.238 300.560,251.481 298.902,251.600 296.400 L 251.800 292.200 253.108 292.074 C 255.536 291.840,253.975 291.200,250.976 291.200 C 249.028 291.200,248.000 291.356,248.000 291.653 M261.856 291.478 C 261.332 292.001,261.567 300.878,262.100 300.700 C 262.451 300.583,262.632 299.211,262.707 296.095 C 262.805 292.064,262.566 290.768,261.856 291.478 M272.487 291.824 C 268.776 294.423,270.222 300.766,274.531 300.791 C 278.634 300.815,280.206 293.625,276.526 291.665 C 275.307 291.016,273.542 291.085,272.487 291.824 M286.400 296.000 C 286.400 299.298,286.541 300.800,286.851 300.800 C 287.170 300.800,287.250 299.508,287.121 296.400 C 287.014 293.788,287.093 292.000,287.317 292.000 C 287.524 292.000,287.601 292.351,287.489 292.781 C 287.377 293.210,287.424 293.615,287.593 293.681 C 287.763 293.746,288.931 295.384,290.189 297.320 C 291.448 299.257,292.685 300.772,292.939 300.688 C 293.545 300.487,293.797 292.037,293.214 291.454 C 292.929 291.169,292.800 292.120,292.800 294.520 C 292.800 299.140,292.490 299.121,289.256 294.300 C 286.524 290.228,286.400 290.302,286.400 296.000 M141.669 292.662 C 142.665 293.564,142.587 294.259,141.403 295.035 C 140.018 295.943,139.200 295.514,139.200 293.879 C 139.200 291.859,140.223 291.354,141.669 292.662 M177.600 292.800 C 178.772 293.972,178.434 295.525,176.820 296.389 C 175.450 297.122,174.800 296.489,174.800 294.424 C 174.800 291.783,175.929 291.129,177.600 292.800 M190.869 292.662 C 191.854 293.553,191.791 294.991,190.725 295.984 C 189.121 297.479,188.000 296.739,188.000 294.187 C 188.000 291.854,189.245 291.193,190.869 292.662 M275.782 292.248 C 278.702 293.369,277.778 300.017,274.706 299.987 C 272.454 299.965,271.816 299.139,271.808 296.231 C 271.797 292.698,273.225 291.267,275.782 292.248 M163.550 294.978 C 164.121 296.910,163.938 297.600,162.853 297.600 C 161.642 297.600,160.516 296.539,161.100 295.947 C 161.375 295.668,161.600 295.152,161.600 294.800 C 161.600 294.176,162.327 293.200,162.793 293.200 C 162.921 293.200,163.262 294.000,163.550 294.978 M238.338 294.431 C 238.414 294.964,238.678 295.644,238.923 295.943 C 239.264 296.358,239.190 296.618,238.608 297.043 C 236.927 298.273,235.454 297.267,236.311 295.473 C 236.540 294.993,236.834 294.270,236.964 293.867 C 237.285 292.873,238.168 293.235,238.338 294.431 M142.735 297.759 C 142.932 298.779,141.742 299.896,140.275 300.068 L 139.000 300.217 139.146 298.408 C 139.226 297.414,139.485 296.478,139.722 296.330 C 140.375 295.918,142.582 296.965,142.735 297.759 M293.200 299.800 C 293.200 300.130,293.020 300.400,292.800 300.400 C 292.580 300.400,292.400 300.130,292.400 299.800 C 292.400 299.470,292.580 299.200,292.800 299.200 C 293.020 299.200,293.200 299.470,293.200 299.800 " stroke="none" fill="#f8d289" fill-rule="evenodd"></path><path id="path4" d="M225.067 132.267 C 224.560 132.774,224.801 133.297,225.337 132.852 C 225.632 132.607,226.021 132.540,226.201 132.703 C 226.381 132.867,226.399 132.775,226.241 132.500 C 225.923 131.947,225.475 131.858,225.067 132.267 M175.400 136.000 C 175.248 136.691,175.214 137.347,175.324 137.457 C 175.434 137.567,175.648 137.091,175.800 136.400 C 175.952 135.709,175.986 135.053,175.876 134.943 C 175.766 134.833,175.552 135.309,175.400 136.000 M227.256 136.400 C 227.256 136.730,227.411 137.360,227.600 137.800 C 227.817 138.304,227.944 138.378,227.944 138.000 C 227.944 137.670,227.789 137.040,227.600 136.600 C 227.383 136.096,227.256 136.022,227.256 136.400 M174.600 141.200 C 174.444 142.547,174.401 143.734,174.505 143.838 C 174.609 143.942,174.819 142.922,174.971 141.571 C 175.124 140.221,175.167 139.034,175.067 138.933 C 174.966 138.833,174.756 139.853,174.600 141.200 M228.277 142.600 C 228.400 143.920,228.568 145.075,228.650 145.167 C 228.918 145.464,228.715 142.634,228.380 141.400 C 228.165 140.611,228.130 141.022,228.277 142.600 M184.600 145.200 C 184.941 145.860,185.311 146.400,185.421 146.400 C 185.531 146.400,185.341 145.860,185.000 145.200 C 184.659 144.540,184.289 144.000,184.179 144.000 C 184.069 144.000,184.259 144.540,184.600 145.200 M154.300 144.693 C 155.235 144.777,156.765 144.777,157.700 144.693 C 158.635 144.609,157.870 144.540,156.000 144.540 C 154.130 144.540,153.365 144.609,154.300 144.693 M149.400 145.200 C 148.381 145.638,149.432 145.638,150.800 145.200 C 151.604 144.943,151.643 144.877,151.000 144.868 C 150.560 144.862,149.840 145.011,149.400 145.200 M161.000 145.200 C 162.196 145.714,163.195 145.714,162.400 145.200 C 162.070 144.987,161.440 144.822,161.000 144.834 L 160.200 144.856 161.000 145.200 M241.400 146.000 L 240.600 146.344 241.400 146.344 C 241.840 146.344,242.560 146.189,243.000 146.000 L 243.800 145.656 243.000 145.656 C 242.560 145.656,241.840 145.811,241.400 146.000 M250.433 145.747 C 250.525 145.828,251.320 146.004,252.200 146.138 C 253.315 146.307,253.558 146.271,253.000 146.019 C 252.232 145.671,250.090 145.444,250.433 145.747 M198.200 146.295 C 195.464 146.404,191.785 147.043,189.311 147.840 C 188.382 148.139,187.302 148.270,186.911 148.133 C 186.347 147.934,186.298 147.989,186.675 148.396 C 187.056 148.808,187.493 148.814,188.875 148.425 C 189.824 148.158,191.500 147.735,192.600 147.485 C 195.209 146.891,206.034 146.898,208.600 147.495 C 209.700 147.751,211.140 148.076,211.800 148.217 C 212.460 148.358,213.598 148.741,214.328 149.069 C 215.884 149.766,216.570 149.590,217.223 148.323 L 217.699 147.400 216.840 148.293 C 216.039 149.127,215.883 149.150,214.491 148.641 C 209.474 146.806,204.254 146.055,198.200 146.295 M144.584 146.827 C 144.210 147.431,144.235 147.439,148.000 147.958 C 149.870 148.216,152.030 148.534,152.800 148.665 C 153.570 148.795,154.098 148.792,153.974 148.658 C 153.672 148.333,147.694 147.200,146.276 147.200 C 145.629 147.200,145.258 147.030,145.400 146.800 C 145.536 146.580,145.467 146.400,145.247 146.400 C 145.027 146.400,144.729 146.592,144.584 146.827 M167.800 148.050 C 168.460 148.550,169.706 149.688,170.568 150.580 C 171.848 151.902,171.979 151.972,171.283 150.958 C 170.477 149.787,168.530 148.110,167.200 147.442 C 166.870 147.276,167.140 147.550,167.800 148.050 M257.388 147.580 C 257.517 147.789,256.942 148.073,256.111 148.213 C 253.633 148.627,253.669 148.735,256.300 148.768 C 258.804 148.800,259.217 148.577,258.320 147.680 C 257.751 147.111,257.051 147.035,257.388 147.580 M233.972 149.900 C 231.951 151.716,229.596 154.885,229.604 155.778 C 229.606 156.010,230.126 155.296,230.759 154.192 C 231.831 152.323,234.427 149.631,236.226 148.524 C 236.652 148.261,236.794 148.036,236.543 148.024 C 236.292 148.011,235.135 148.855,233.972 149.900 M155.000 149.200 C 156.196 149.714,157.195 149.714,156.400 149.200 C 156.070 148.987,155.440 148.822,155.000 148.834 L 154.200 148.856 155.000 149.200 M250.600 149.200 C 249.506 149.670,251.333 149.670,252.800 149.200 C 253.775 148.888,253.770 148.879,252.600 148.868 C 251.940 148.862,251.040 149.011,250.600 149.200 M158.000 150.088 C 162.993 152.252,165.819 153.859,167.773 155.645 C 171.095 158.681,171.098 158.698,168.823 161.533 C 165.027 166.262,163.778 168.718,161.157 176.600 C 157.757 186.823,158.746 201.071,163.529 210.774 C 164.948 213.654,165.173 213.626,166.726 210.373 C 169.442 204.684,175.845 199.456,184.073 196.210 C 186.563 195.227,188.305 194.418,187.945 194.412 C 184.976 194.358,174.035 200.478,170.090 204.400 C 168.971 205.512,165.200 211.104,165.200 211.651 C 165.200 213.963,162.512 207.844,160.873 201.800 C 159.828 197.946,159.388 186.506,160.135 182.600 C 160.782 179.217,162.419 174.015,163.651 171.425 C 164.063 170.559,164.400 169.716,164.400 169.554 C 164.400 168.942,167.266 164.478,169.197 162.082 C 171.588 159.115,171.599 159.010,169.756 156.857 C 167.629 154.372,164.309 152.240,159.451 150.238 C 157.741 149.534,156.402 149.395,158.000 150.088 M245.200 150.639 C 240.323 152.446,237.486 154.136,234.510 157.003 C 231.060 160.326,231.066 160.285,233.534 163.671 C 235.356 166.169,236.618 168.480,238.191 172.200 C 238.563 173.080,239.032 174.113,239.234 174.495 C 239.435 174.877,239.600 175.541,239.600 175.971 C 239.600 176.401,239.780 176.864,240.000 177.000 C 240.220 177.136,240.400 177.856,240.400 178.600 C 240.400 179.344,240.557 180.050,240.750 180.169 C 241.721 180.769,242.135 194.770,241.301 198.800 C 240.299 203.643,239.685 205.793,238.601 208.251 C 236.851 212.222,236.802 212.256,235.834 210.216 C 231.424 200.922,212.562 190.486,204.177 192.701 L 202.600 193.117 204.600 193.183 C 208.554 193.311,213.486 194.438,218.046 196.254 C 226.472 199.609,232.286 204.514,235.241 210.758 C 235.768 211.872,236.380 212.732,236.600 212.668 C 237.156 212.507,238.952 208.972,239.910 206.153 C 241.777 200.656,242.400 196.816,242.400 190.800 C 242.400 185.947,242.174 183.937,241.139 179.600 C 240.691 177.723,239.389 173.580,238.814 172.200 C 238.631 171.760,238.246 170.770,237.959 170.000 C 237.320 168.285,235.113 164.451,233.887 162.926 C 231.870 160.419,231.909 160.645,233.186 158.883 C 235.449 155.759,240.188 152.845,246.333 150.798 C 248.240 150.164,249.350 149.651,248.800 149.660 C 248.250 149.668,246.630 150.109,245.200 150.639 M172.627 153.600 C 173.452 155.312,173.603 155.494,173.591 154.767 C 173.586 154.455,173.215 153.750,172.767 153.200 L 171.952 152.200 172.627 153.600 M174.464 154.267 C 174.429 154.963,174.175 155.614,173.900 155.712 C 173.625 155.810,173.538 156.038,173.707 156.219 C 174.273 156.825,174.860 155.714,174.693 154.351 L 174.528 153.000 174.464 154.267 M228.467 155.700 C 228.416 157.152,228.541 157.600,229.000 157.600 C 229.330 157.600,229.600 157.319,229.600 156.976 C 229.600 156.633,229.431 156.457,229.225 156.585 C 229.018 156.712,228.778 156.138,228.692 155.308 C 228.547 153.916,228.529 153.946,228.467 155.700 M192.500 193.241 C 188.885 194.239,188.472 194.406,190.200 194.164 C 191.080 194.041,193.510 193.705,195.600 193.417 L 199.400 192.892 196.600 192.887 C 195.060 192.884,193.215 193.043,192.500 193.241 M116.880 203.680 C 116.552 204.008,116.425 205.623,116.480 208.780 L 116.561 213.400 116.780 208.600 L 117.000 203.800 119.188 203.676 C 120.907 203.579,121.485 203.702,121.888 204.253 C 122.327 204.853,122.400 204.863,122.400 204.319 C 122.400 203.176,117.905 202.655,116.880 203.680 M144.900 203.465 C 144.625 203.576,144.400 203.956,144.400 204.310 C 144.400 204.865,144.471 204.856,144.921 204.241 C 145.354 203.648,145.919 203.551,148.284 203.664 C 149.847 203.739,151.042 203.665,150.940 203.500 C 150.734 203.171,145.702 203.141,144.900 203.465 M148.398 209.282 C 148.289 211.637,148.342 213.421,148.515 213.246 C 148.689 213.072,148.778 211.145,148.713 208.965 L 148.595 205.000 148.398 209.282 M250.262 205.900 C 250.160 206.065,250.762 206.200,251.600 206.200 C 252.438 206.200,253.040 206.065,252.938 205.900 C 252.836 205.735,252.234 205.600,251.600 205.600 C 250.966 205.600,250.364 205.735,250.262 205.900 M280.000 205.755 C 280.000 205.840,280.530 205.987,281.179 206.082 C 281.827 206.177,282.267 206.108,282.155 205.928 C 281.957 205.607,280.000 205.450,280.000 205.755 M249.062 206.983 C 248.892 207.426,249.076 207.598,249.713 207.594 C 250.201 207.591,250.420 207.453,250.200 207.289 C 249.980 207.125,249.687 206.850,249.549 206.678 C 249.412 206.506,249.192 206.643,249.062 206.983 M298.668 209.000 C 298.971 210.977,299.202 211.314,299.194 209.767 C 299.191 209.125,299.016 208.330,298.805 208.000 C 298.545 207.591,298.501 207.910,298.668 209.000 M121.200 208.333 C 121.200 208.598,120.606 208.800,119.824 208.800 C 119.067 208.800,118.362 208.938,118.257 209.107 C 118.153 209.276,118.773 209.347,119.636 209.265 C 121.146 209.121,121.943 208.609,121.440 208.107 C 121.308 207.975,121.200 208.077,121.200 208.333 M262.901 209.800 C 262.905 210.680,262.987 210.993,263.083 210.495 C 263.179 209.998,263.175 209.278,263.075 208.895 C 262.975 208.513,262.896 208.920,262.901 209.800 M293.301 209.800 C 293.305 210.680,293.387 210.993,293.483 210.495 C 293.579 209.998,293.575 209.278,293.475 208.895 C 293.375 208.513,293.296 208.920,293.301 209.800 M182.922 212.595 C 182.069 214.383,182.560 216.597,184.054 217.706 C 185.201 218.556,188.800 219.164,188.800 218.507 C 188.800 218.289,188.349 218.197,187.797 218.303 C 184.841 218.868,182.372 216.258,183.142 213.381 C 183.629 211.558,184.490 211.782,185.526 214.000 C 186.035 215.090,187.025 216.383,187.726 216.871 C 188.904 217.693,188.876 217.623,187.353 215.946 C 186.447 214.949,185.488 213.473,185.222 212.666 C 184.613 210.822,183.779 210.797,182.922 212.595 M216.379 213.070 C 215.929 214.132,214.939 215.576,214.180 216.280 C 212.545 217.795,212.459 218.299,213.779 218.630 C 215.774 219.131,219.225 217.212,219.184 215.625 C 219.175 215.256,218.923 215.451,218.571 216.100 C 217.671 217.759,213.600 219.213,213.600 217.875 C 213.600 217.586,214.133 216.839,214.784 216.215 C 215.435 215.592,216.336 214.298,216.786 213.341 C 217.802 211.180,218.142 211.162,218.764 213.239 C 219.034 214.140,219.337 214.796,219.436 214.697 C 219.536 214.597,219.388 213.817,219.109 212.963 C 218.357 210.670,217.380 210.708,216.379 213.070 M251.467 211.467 C 250.719 212.214,251.290 212.800,252.767 212.800 C 253.628 212.800,254.425 212.984,254.537 213.210 C 254.649 213.436,254.695 213.390,254.639 213.110 C 254.584 212.830,253.862 212.543,253.036 212.474 C 251.926 212.381,251.592 212.198,251.755 211.774 C 251.993 211.154,251.890 211.044,251.467 211.467 M134.176 212.038 C 134.027 212.280,133.396 212.402,132.774 212.311 C 132.151 212.219,131.733 212.292,131.845 212.472 C 132.183 213.019,133.870 212.839,134.400 212.200 C 134.674 211.870,134.797 211.600,134.673 211.600 C 134.549 211.600,134.325 211.797,134.176 212.038 M280.198 212.003 C 279.839 212.585,280.881 212.878,282.658 212.694 C 284.105 212.544,284.081 212.530,282.276 212.467 C 281.110 212.426,280.450 212.242,280.600 212.000 C 280.736 211.780,280.757 211.600,280.647 211.600 C 280.537 211.600,280.335 211.781,280.198 212.003 M119.705 212.687 C 120.314 212.779,121.214 212.777,121.705 212.682 C 122.197 212.587,121.700 212.511,120.600 212.514 C 119.500 212.517,119.097 212.595,119.705 212.687 M286.800 292.824 C 286.800 293.277,286.980 293.536,287.200 293.400 C 287.420 293.264,287.600 292.893,287.600 292.576 C 287.600 292.259,287.420 292.000,287.200 292.000 C 286.980 292.000,286.800 292.371,286.800 292.824 M292.400 299.800 C 292.400 300.130,292.580 300.400,292.800 300.400 C 293.020 300.400,293.200 300.130,293.200 299.800 C 293.200 299.470,293.020 299.200,292.800 299.200 C 292.580 299.200,292.400 299.470,292.400 299.800 " stroke="none" fill="#ce985b" fill-rule="evenodd"></path></g></svg>